%TF.GenerationSoftware,KiCad,Pcbnew,10.0.6*%
%TF.CreationDate,2026-09-25T11:18:34-04:00*%
%TF.ProjectId,AZ1_Series_Breakout,415a315f-5365-4726-9965-735f42726561,rev?*%
%TF.SameCoordinates,PX7088980PY5241210*%
%TF.FileFunction,Legend,Bot*%
%TF.FilePolarity,Positive*%
%FSLAX46Y46*%
G04 Gerber Fmt 4.6, Leading zero omitted, Abs format (unit mm)*
G04 Created by KiCad (PCBNEW 10.0.6) date 2026-09-25 11:18:34*
%MOMM*%
%LPD*%
G01*
G04 APERTURE LIST*
%ADD10C,0.150000*%
%ADD11C,0.100000*%
%ADD12C,0.010000*%
%ADD13C,0.120000*%
G04 APERTURE END LIST*
D10*
X15242800Y-29110839D02*
X15195180Y-28967982D01*
X15195180Y-28967982D02*
X15195180Y-28729887D01*
X15195180Y-28729887D02*
X15242800Y-28634649D01*
X15242800Y-28634649D02*
X15290419Y-28587030D01*
X15290419Y-28587030D02*
X15385657Y-28539411D01*
X15385657Y-28539411D02*
X15480895Y-28539411D01*
X15480895Y-28539411D02*
X15576133Y-28587030D01*
X15576133Y-28587030D02*
X15623752Y-28634649D01*
X15623752Y-28634649D02*
X15671371Y-28729887D01*
X15671371Y-28729887D02*
X15718990Y-28920363D01*
X15718990Y-28920363D02*
X15766609Y-29015601D01*
X15766609Y-29015601D02*
X15814228Y-29063220D01*
X15814228Y-29063220D02*
X15909466Y-29110839D01*
X15909466Y-29110839D02*
X16004704Y-29110839D01*
X16004704Y-29110839D02*
X16099942Y-29063220D01*
X16099942Y-29063220D02*
X16147561Y-29015601D01*
X16147561Y-29015601D02*
X16195180Y-28920363D01*
X16195180Y-28920363D02*
X16195180Y-28682268D01*
X16195180Y-28682268D02*
X16147561Y-28539411D01*
X15195180Y-28110839D02*
X16195180Y-28110839D01*
X16195180Y-28110839D02*
X16195180Y-27872744D01*
X16195180Y-27872744D02*
X16147561Y-27729887D01*
X16147561Y-27729887D02*
X16052323Y-27634649D01*
X16052323Y-27634649D02*
X15957085Y-27587030D01*
X15957085Y-27587030D02*
X15766609Y-27539411D01*
X15766609Y-27539411D02*
X15623752Y-27539411D01*
X15623752Y-27539411D02*
X15433276Y-27587030D01*
X15433276Y-27587030D02*
X15338038Y-27634649D01*
X15338038Y-27634649D02*
X15242800Y-27729887D01*
X15242800Y-27729887D02*
X15195180Y-27872744D01*
X15195180Y-27872744D02*
X15195180Y-28110839D01*
X15480895Y-27158458D02*
X15480895Y-26682268D01*
X15195180Y-27253696D02*
X16195180Y-26920363D01*
X16195180Y-26920363D02*
X15195180Y-26587030D01*
X20560895Y-29110839D02*
X20560895Y-28634649D01*
X20275180Y-29206077D02*
X21275180Y-28872744D01*
X21275180Y-28872744D02*
X20275180Y-28539411D01*
X21275180Y-28015601D02*
X21275180Y-27920363D01*
X21275180Y-27920363D02*
X21227561Y-27825125D01*
X21227561Y-27825125D02*
X21179942Y-27777506D01*
X21179942Y-27777506D02*
X21084704Y-27729887D01*
X21084704Y-27729887D02*
X20894228Y-27682268D01*
X20894228Y-27682268D02*
X20656133Y-27682268D01*
X20656133Y-27682268D02*
X20465657Y-27729887D01*
X20465657Y-27729887D02*
X20370419Y-27777506D01*
X20370419Y-27777506D02*
X20322800Y-27825125D01*
X20322800Y-27825125D02*
X20275180Y-27920363D01*
X20275180Y-27920363D02*
X20275180Y-28015601D01*
X20275180Y-28015601D02*
X20322800Y-28110839D01*
X20322800Y-28110839D02*
X20370419Y-28158458D01*
X20370419Y-28158458D02*
X20465657Y-28206077D01*
X20465657Y-28206077D02*
X20656133Y-28253696D01*
X20656133Y-28253696D02*
X20894228Y-28253696D01*
X20894228Y-28253696D02*
X21084704Y-28206077D01*
X21084704Y-28206077D02*
X21179942Y-28158458D01*
X21179942Y-28158458D02*
X21227561Y-28110839D01*
X21227561Y-28110839D02*
X21275180Y-28015601D01*
X22815180Y-28491792D02*
X23291371Y-28825125D01*
X22815180Y-29063220D02*
X23815180Y-29063220D01*
X23815180Y-29063220D02*
X23815180Y-28682268D01*
X23815180Y-28682268D02*
X23767561Y-28587030D01*
X23767561Y-28587030D02*
X23719942Y-28539411D01*
X23719942Y-28539411D02*
X23624704Y-28491792D01*
X23624704Y-28491792D02*
X23481847Y-28491792D01*
X23481847Y-28491792D02*
X23386609Y-28539411D01*
X23386609Y-28539411D02*
X23338990Y-28587030D01*
X23338990Y-28587030D02*
X23291371Y-28682268D01*
X23291371Y-28682268D02*
X23291371Y-29063220D01*
X22862800Y-28110839D02*
X22815180Y-27967982D01*
X22815180Y-27967982D02*
X22815180Y-27729887D01*
X22815180Y-27729887D02*
X22862800Y-27634649D01*
X22862800Y-27634649D02*
X22910419Y-27587030D01*
X22910419Y-27587030D02*
X23005657Y-27539411D01*
X23005657Y-27539411D02*
X23100895Y-27539411D01*
X23100895Y-27539411D02*
X23196133Y-27587030D01*
X23196133Y-27587030D02*
X23243752Y-27634649D01*
X23243752Y-27634649D02*
X23291371Y-27729887D01*
X23291371Y-27729887D02*
X23338990Y-27920363D01*
X23338990Y-27920363D02*
X23386609Y-28015601D01*
X23386609Y-28015601D02*
X23434228Y-28063220D01*
X23434228Y-28063220D02*
X23529466Y-28110839D01*
X23529466Y-28110839D02*
X23624704Y-28110839D01*
X23624704Y-28110839D02*
X23719942Y-28063220D01*
X23719942Y-28063220D02*
X23767561Y-28015601D01*
X23767561Y-28015601D02*
X23815180Y-27920363D01*
X23815180Y-27920363D02*
X23815180Y-27682268D01*
X23815180Y-27682268D02*
X23767561Y-27539411D01*
X23815180Y-27253696D02*
X23815180Y-26682268D01*
X22815180Y-26967982D02*
X23815180Y-26967982D01*
X24092800Y-29201316D02*
X24092800Y-26687030D01*
X11115180Y-29158458D02*
X11115180Y-28539411D01*
X11115180Y-28539411D02*
X10734228Y-28872744D01*
X10734228Y-28872744D02*
X10734228Y-28729887D01*
X10734228Y-28729887D02*
X10686609Y-28634649D01*
X10686609Y-28634649D02*
X10638990Y-28587030D01*
X10638990Y-28587030D02*
X10543752Y-28539411D01*
X10543752Y-28539411D02*
X10305657Y-28539411D01*
X10305657Y-28539411D02*
X10210419Y-28587030D01*
X10210419Y-28587030D02*
X10162800Y-28634649D01*
X10162800Y-28634649D02*
X10115180Y-28729887D01*
X10115180Y-28729887D02*
X10115180Y-29015601D01*
X10115180Y-29015601D02*
X10162800Y-29110839D01*
X10162800Y-29110839D02*
X10210419Y-29158458D01*
X11115180Y-28253696D02*
X10115180Y-27920363D01*
X10115180Y-27920363D02*
X11115180Y-27587030D01*
X11115180Y-27348934D02*
X11115180Y-26729887D01*
X11115180Y-26729887D02*
X10734228Y-27063220D01*
X10734228Y-27063220D02*
X10734228Y-26920363D01*
X10734228Y-26920363D02*
X10686609Y-26825125D01*
X10686609Y-26825125D02*
X10638990Y-26777506D01*
X10638990Y-26777506D02*
X10543752Y-26729887D01*
X10543752Y-26729887D02*
X10305657Y-26729887D01*
X10305657Y-26729887D02*
X10210419Y-26777506D01*
X10210419Y-26777506D02*
X10162800Y-26825125D01*
X10162800Y-26825125D02*
X10115180Y-26920363D01*
X10115180Y-26920363D02*
X10115180Y-27206077D01*
X10115180Y-27206077D02*
X10162800Y-27301315D01*
X10162800Y-27301315D02*
X10210419Y-27348934D01*
X25450419Y-28491792D02*
X25402800Y-28539411D01*
X25402800Y-28539411D02*
X25355180Y-28682268D01*
X25355180Y-28682268D02*
X25355180Y-28777506D01*
X25355180Y-28777506D02*
X25402800Y-28920363D01*
X25402800Y-28920363D02*
X25498038Y-29015601D01*
X25498038Y-29015601D02*
X25593276Y-29063220D01*
X25593276Y-29063220D02*
X25783752Y-29110839D01*
X25783752Y-29110839D02*
X25926609Y-29110839D01*
X25926609Y-29110839D02*
X26117085Y-29063220D01*
X26117085Y-29063220D02*
X26212323Y-29015601D01*
X26212323Y-29015601D02*
X26307561Y-28920363D01*
X26307561Y-28920363D02*
X26355180Y-28777506D01*
X26355180Y-28777506D02*
X26355180Y-28682268D01*
X26355180Y-28682268D02*
X26307561Y-28539411D01*
X26307561Y-28539411D02*
X26259942Y-28491792D01*
X25402800Y-28110839D02*
X25355180Y-27967982D01*
X25355180Y-27967982D02*
X25355180Y-27729887D01*
X25355180Y-27729887D02*
X25402800Y-27634649D01*
X25402800Y-27634649D02*
X25450419Y-27587030D01*
X25450419Y-27587030D02*
X25545657Y-27539411D01*
X25545657Y-27539411D02*
X25640895Y-27539411D01*
X25640895Y-27539411D02*
X25736133Y-27587030D01*
X25736133Y-27587030D02*
X25783752Y-27634649D01*
X25783752Y-27634649D02*
X25831371Y-27729887D01*
X25831371Y-27729887D02*
X25878990Y-27920363D01*
X25878990Y-27920363D02*
X25926609Y-28015601D01*
X25926609Y-28015601D02*
X25974228Y-28063220D01*
X25974228Y-28063220D02*
X26069466Y-28110839D01*
X26069466Y-28110839D02*
X26164704Y-28110839D01*
X26164704Y-28110839D02*
X26259942Y-28063220D01*
X26259942Y-28063220D02*
X26307561Y-28015601D01*
X26307561Y-28015601D02*
X26355180Y-27920363D01*
X26355180Y-27920363D02*
X26355180Y-27682268D01*
X26355180Y-27682268D02*
X26307561Y-27539411D01*
X26632800Y-29201316D02*
X26632800Y-27448935D01*
X33500990Y-28729887D02*
X33453371Y-28587030D01*
X33453371Y-28587030D02*
X33405752Y-28539411D01*
X33405752Y-28539411D02*
X33310514Y-28491792D01*
X33310514Y-28491792D02*
X33167657Y-28491792D01*
X33167657Y-28491792D02*
X33072419Y-28539411D01*
X33072419Y-28539411D02*
X33024800Y-28587030D01*
X33024800Y-28587030D02*
X32977180Y-28682268D01*
X32977180Y-28682268D02*
X32977180Y-29063220D01*
X32977180Y-29063220D02*
X33977180Y-29063220D01*
X33977180Y-29063220D02*
X33977180Y-28729887D01*
X33977180Y-28729887D02*
X33929561Y-28634649D01*
X33929561Y-28634649D02*
X33881942Y-28587030D01*
X33881942Y-28587030D02*
X33786704Y-28539411D01*
X33786704Y-28539411D02*
X33691466Y-28539411D01*
X33691466Y-28539411D02*
X33596228Y-28587030D01*
X33596228Y-28587030D02*
X33548609Y-28634649D01*
X33548609Y-28634649D02*
X33500990Y-28729887D01*
X33500990Y-28729887D02*
X33500990Y-29063220D01*
X33358133Y-28063220D02*
X33358133Y-27301316D01*
X31387561Y-28539411D02*
X31435180Y-28634649D01*
X31435180Y-28634649D02*
X31435180Y-28777506D01*
X31435180Y-28777506D02*
X31387561Y-28920363D01*
X31387561Y-28920363D02*
X31292323Y-29015601D01*
X31292323Y-29015601D02*
X31197085Y-29063220D01*
X31197085Y-29063220D02*
X31006609Y-29110839D01*
X31006609Y-29110839D02*
X30863752Y-29110839D01*
X30863752Y-29110839D02*
X30673276Y-29063220D01*
X30673276Y-29063220D02*
X30578038Y-29015601D01*
X30578038Y-29015601D02*
X30482800Y-28920363D01*
X30482800Y-28920363D02*
X30435180Y-28777506D01*
X30435180Y-28777506D02*
X30435180Y-28682268D01*
X30435180Y-28682268D02*
X30482800Y-28539411D01*
X30482800Y-28539411D02*
X30530419Y-28491792D01*
X30530419Y-28491792D02*
X30863752Y-28491792D01*
X30863752Y-28491792D02*
X30863752Y-28682268D01*
X30816133Y-28063220D02*
X30816133Y-27301316D01*
X17782800Y-29110839D02*
X17735180Y-28967982D01*
X17735180Y-28967982D02*
X17735180Y-28729887D01*
X17735180Y-28729887D02*
X17782800Y-28634649D01*
X17782800Y-28634649D02*
X17830419Y-28587030D01*
X17830419Y-28587030D02*
X17925657Y-28539411D01*
X17925657Y-28539411D02*
X18020895Y-28539411D01*
X18020895Y-28539411D02*
X18116133Y-28587030D01*
X18116133Y-28587030D02*
X18163752Y-28634649D01*
X18163752Y-28634649D02*
X18211371Y-28729887D01*
X18211371Y-28729887D02*
X18258990Y-28920363D01*
X18258990Y-28920363D02*
X18306609Y-29015601D01*
X18306609Y-29015601D02*
X18354228Y-29063220D01*
X18354228Y-29063220D02*
X18449466Y-29110839D01*
X18449466Y-29110839D02*
X18544704Y-29110839D01*
X18544704Y-29110839D02*
X18639942Y-29063220D01*
X18639942Y-29063220D02*
X18687561Y-29015601D01*
X18687561Y-29015601D02*
X18735180Y-28920363D01*
X18735180Y-28920363D02*
X18735180Y-28682268D01*
X18735180Y-28682268D02*
X18687561Y-28539411D01*
X17830419Y-27539411D02*
X17782800Y-27587030D01*
X17782800Y-27587030D02*
X17735180Y-27729887D01*
X17735180Y-27729887D02*
X17735180Y-27825125D01*
X17735180Y-27825125D02*
X17782800Y-27967982D01*
X17782800Y-27967982D02*
X17878038Y-28063220D01*
X17878038Y-28063220D02*
X17973276Y-28110839D01*
X17973276Y-28110839D02*
X18163752Y-28158458D01*
X18163752Y-28158458D02*
X18306609Y-28158458D01*
X18306609Y-28158458D02*
X18497085Y-28110839D01*
X18497085Y-28110839D02*
X18592323Y-28063220D01*
X18592323Y-28063220D02*
X18687561Y-27967982D01*
X18687561Y-27967982D02*
X18735180Y-27825125D01*
X18735180Y-27825125D02*
X18735180Y-27729887D01*
X18735180Y-27729887D02*
X18687561Y-27587030D01*
X18687561Y-27587030D02*
X18639942Y-27539411D01*
X17735180Y-26634649D02*
X17735180Y-27110839D01*
X17735180Y-27110839D02*
X18735180Y-27110839D01*
X13607561Y-28539411D02*
X13655180Y-28634649D01*
X13655180Y-28634649D02*
X13655180Y-28777506D01*
X13655180Y-28777506D02*
X13607561Y-28920363D01*
X13607561Y-28920363D02*
X13512323Y-29015601D01*
X13512323Y-29015601D02*
X13417085Y-29063220D01*
X13417085Y-29063220D02*
X13226609Y-29110839D01*
X13226609Y-29110839D02*
X13083752Y-29110839D01*
X13083752Y-29110839D02*
X12893276Y-29063220D01*
X12893276Y-29063220D02*
X12798038Y-29015601D01*
X12798038Y-29015601D02*
X12702800Y-28920363D01*
X12702800Y-28920363D02*
X12655180Y-28777506D01*
X12655180Y-28777506D02*
X12655180Y-28682268D01*
X12655180Y-28682268D02*
X12702800Y-28539411D01*
X12702800Y-28539411D02*
X12750419Y-28491792D01*
X12750419Y-28491792D02*
X13083752Y-28491792D01*
X13083752Y-28491792D02*
X13083752Y-28682268D01*
X12655180Y-28063220D02*
X13655180Y-28063220D01*
X13655180Y-28063220D02*
X12655180Y-27491792D01*
X12655180Y-27491792D02*
X13655180Y-27491792D01*
X12655180Y-27015601D02*
X13655180Y-27015601D01*
X13655180Y-27015601D02*
X13655180Y-26777506D01*
X13655180Y-26777506D02*
X13607561Y-26634649D01*
X13607561Y-26634649D02*
X13512323Y-26539411D01*
X13512323Y-26539411D02*
X13417085Y-26491792D01*
X13417085Y-26491792D02*
X13226609Y-26444173D01*
X13226609Y-26444173D02*
X13083752Y-26444173D01*
X13083752Y-26444173D02*
X12893276Y-26491792D01*
X12893276Y-26491792D02*
X12798038Y-26539411D01*
X12798038Y-26539411D02*
X12702800Y-26634649D01*
X12702800Y-26634649D02*
X12655180Y-26777506D01*
X12655180Y-26777506D02*
X12655180Y-27015601D01*
X31532857Y-26769819D02*
X32009047Y-26769819D01*
X32009047Y-26769819D02*
X32009047Y-25769819D01*
X31199523Y-26246009D02*
X30866190Y-26246009D01*
X30723333Y-26769819D02*
X31199523Y-26769819D01*
X31199523Y-26769819D02*
X31199523Y-25769819D01*
X31199523Y-25769819D02*
X30723333Y-25769819D01*
X30294761Y-26769819D02*
X30294761Y-25769819D01*
X30294761Y-25769819D02*
X30056666Y-25769819D01*
X30056666Y-25769819D02*
X29913809Y-25817438D01*
X29913809Y-25817438D02*
X29818571Y-25912676D01*
X29818571Y-25912676D02*
X29770952Y-26007914D01*
X29770952Y-26007914D02*
X29723333Y-26198390D01*
X29723333Y-26198390D02*
X29723333Y-26341247D01*
X29723333Y-26341247D02*
X29770952Y-26531723D01*
X29770952Y-26531723D02*
X29818571Y-26626961D01*
X29818571Y-26626961D02*
X29913809Y-26722200D01*
X29913809Y-26722200D02*
X30056666Y-26769819D01*
X30056666Y-26769819D02*
X30294761Y-26769819D01*
X27895180Y-28491792D02*
X28371371Y-28825125D01*
X27895180Y-29063220D02*
X28895180Y-29063220D01*
X28895180Y-29063220D02*
X28895180Y-28682268D01*
X28895180Y-28682268D02*
X28847561Y-28587030D01*
X28847561Y-28587030D02*
X28799942Y-28539411D01*
X28799942Y-28539411D02*
X28704704Y-28491792D01*
X28704704Y-28491792D02*
X28561847Y-28491792D01*
X28561847Y-28491792D02*
X28466609Y-28539411D01*
X28466609Y-28539411D02*
X28418990Y-28587030D01*
X28418990Y-28587030D02*
X28371371Y-28682268D01*
X28371371Y-28682268D02*
X28371371Y-29063220D01*
X28276133Y-28063220D02*
X28276133Y-27301316D01*
D11*
X34480000Y-29420000D02*
X34480000Y-27050000D01*
X27300000Y-29420000D02*
X27300000Y-27050000D01*
X27300000Y-27050000D02*
X34480000Y-27050000D01*
D10*
X3537744Y-16714285D02*
X3490124Y-16571428D01*
X3490124Y-16571428D02*
X3490124Y-16333333D01*
X3490124Y-16333333D02*
X3537744Y-16238095D01*
X3537744Y-16238095D02*
X3585363Y-16190476D01*
X3585363Y-16190476D02*
X3680601Y-16142857D01*
X3680601Y-16142857D02*
X3775839Y-16142857D01*
X3775839Y-16142857D02*
X3871077Y-16190476D01*
X3871077Y-16190476D02*
X3918696Y-16238095D01*
X3918696Y-16238095D02*
X3966315Y-16333333D01*
X3966315Y-16333333D02*
X4013934Y-16523809D01*
X4013934Y-16523809D02*
X4061553Y-16619047D01*
X4061553Y-16619047D02*
X4109172Y-16666666D01*
X4109172Y-16666666D02*
X4204410Y-16714285D01*
X4204410Y-16714285D02*
X4299648Y-16714285D01*
X4299648Y-16714285D02*
X4394886Y-16666666D01*
X4394886Y-16666666D02*
X4442505Y-16619047D01*
X4442505Y-16619047D02*
X4490124Y-16523809D01*
X4490124Y-16523809D02*
X4490124Y-16285714D01*
X4490124Y-16285714D02*
X4442505Y-16142857D01*
X3490124Y-15285714D02*
X4013934Y-15285714D01*
X4013934Y-15285714D02*
X4109172Y-15333333D01*
X4109172Y-15333333D02*
X4156791Y-15428571D01*
X4156791Y-15428571D02*
X4156791Y-15619047D01*
X4156791Y-15619047D02*
X4109172Y-15714285D01*
X3537744Y-15285714D02*
X3490124Y-15380952D01*
X3490124Y-15380952D02*
X3490124Y-15619047D01*
X3490124Y-15619047D02*
X3537744Y-15714285D01*
X3537744Y-15714285D02*
X3632982Y-15761904D01*
X3632982Y-15761904D02*
X3728220Y-15761904D01*
X3728220Y-15761904D02*
X3823458Y-15714285D01*
X3823458Y-15714285D02*
X3871077Y-15619047D01*
X3871077Y-15619047D02*
X3871077Y-15380952D01*
X3871077Y-15380952D02*
X3918696Y-15285714D01*
X3490124Y-14809523D02*
X4156791Y-14809523D01*
X4061553Y-14809523D02*
X4109172Y-14761904D01*
X4109172Y-14761904D02*
X4156791Y-14666666D01*
X4156791Y-14666666D02*
X4156791Y-14523809D01*
X4156791Y-14523809D02*
X4109172Y-14428571D01*
X4109172Y-14428571D02*
X4013934Y-14380952D01*
X4013934Y-14380952D02*
X3490124Y-14380952D01*
X4013934Y-14380952D02*
X4109172Y-14333333D01*
X4109172Y-14333333D02*
X4156791Y-14238095D01*
X4156791Y-14238095D02*
X4156791Y-14095238D01*
X4156791Y-14095238D02*
X4109172Y-13999999D01*
X4109172Y-13999999D02*
X4013934Y-13952380D01*
X4013934Y-13952380D02*
X3490124Y-13952380D01*
X3490124Y-12714285D02*
X4490124Y-12714285D01*
X4490124Y-12714285D02*
X4490124Y-12333333D01*
X4490124Y-12333333D02*
X4442505Y-12238095D01*
X4442505Y-12238095D02*
X4394886Y-12190476D01*
X4394886Y-12190476D02*
X4299648Y-12142857D01*
X4299648Y-12142857D02*
X4156791Y-12142857D01*
X4156791Y-12142857D02*
X4061553Y-12190476D01*
X4061553Y-12190476D02*
X4013934Y-12238095D01*
X4013934Y-12238095D02*
X3966315Y-12333333D01*
X3966315Y-12333333D02*
X3966315Y-12714285D01*
X3537744Y-11333333D02*
X3490124Y-11428571D01*
X3490124Y-11428571D02*
X3490124Y-11619047D01*
X3490124Y-11619047D02*
X3537744Y-11714285D01*
X3537744Y-11714285D02*
X3632982Y-11761904D01*
X3632982Y-11761904D02*
X4013934Y-11761904D01*
X4013934Y-11761904D02*
X4109172Y-11714285D01*
X4109172Y-11714285D02*
X4156791Y-11619047D01*
X4156791Y-11619047D02*
X4156791Y-11428571D01*
X4156791Y-11428571D02*
X4109172Y-11333333D01*
X4109172Y-11333333D02*
X4013934Y-11285714D01*
X4013934Y-11285714D02*
X3918696Y-11285714D01*
X3918696Y-11285714D02*
X3823458Y-11761904D01*
X3490124Y-10857142D02*
X4156791Y-10857142D01*
X3966315Y-10857142D02*
X4061553Y-10809523D01*
X4061553Y-10809523D02*
X4109172Y-10761904D01*
X4109172Y-10761904D02*
X4156791Y-10666666D01*
X4156791Y-10666666D02*
X4156791Y-10571428D01*
X3490124Y-10238094D02*
X4156791Y-10238094D01*
X3966315Y-10238094D02*
X4061553Y-10190475D01*
X4061553Y-10190475D02*
X4109172Y-10142856D01*
X4109172Y-10142856D02*
X4156791Y-10047618D01*
X4156791Y-10047618D02*
X4156791Y-9952380D01*
X4156791Y-9714284D02*
X3490124Y-9476189D01*
X4156791Y-9238094D02*
X3490124Y-9476189D01*
X3490124Y-9476189D02*
X3252029Y-9571427D01*
X3252029Y-9571427D02*
X3204410Y-9619046D01*
X3204410Y-9619046D02*
X3156791Y-9714284D01*
X1927800Y-19023809D02*
X1880180Y-18880952D01*
X1880180Y-18880952D02*
X1880180Y-18642857D01*
X1880180Y-18642857D02*
X1927800Y-18547619D01*
X1927800Y-18547619D02*
X1975419Y-18500000D01*
X1975419Y-18500000D02*
X2070657Y-18452381D01*
X2070657Y-18452381D02*
X2165895Y-18452381D01*
X2165895Y-18452381D02*
X2261133Y-18500000D01*
X2261133Y-18500000D02*
X2308752Y-18547619D01*
X2308752Y-18547619D02*
X2356371Y-18642857D01*
X2356371Y-18642857D02*
X2403990Y-18833333D01*
X2403990Y-18833333D02*
X2451609Y-18928571D01*
X2451609Y-18928571D02*
X2499228Y-18976190D01*
X2499228Y-18976190D02*
X2594466Y-19023809D01*
X2594466Y-19023809D02*
X2689704Y-19023809D01*
X2689704Y-19023809D02*
X2784942Y-18976190D01*
X2784942Y-18976190D02*
X2832561Y-18928571D01*
X2832561Y-18928571D02*
X2880180Y-18833333D01*
X2880180Y-18833333D02*
X2880180Y-18595238D01*
X2880180Y-18595238D02*
X2832561Y-18452381D01*
X1927800Y-17642857D02*
X1880180Y-17738095D01*
X1880180Y-17738095D02*
X1880180Y-17928571D01*
X1880180Y-17928571D02*
X1927800Y-18023809D01*
X1927800Y-18023809D02*
X2023038Y-18071428D01*
X2023038Y-18071428D02*
X2403990Y-18071428D01*
X2403990Y-18071428D02*
X2499228Y-18023809D01*
X2499228Y-18023809D02*
X2546847Y-17928571D01*
X2546847Y-17928571D02*
X2546847Y-17738095D01*
X2546847Y-17738095D02*
X2499228Y-17642857D01*
X2499228Y-17642857D02*
X2403990Y-17595238D01*
X2403990Y-17595238D02*
X2308752Y-17595238D01*
X2308752Y-17595238D02*
X2213514Y-18071428D01*
X2546847Y-17166666D02*
X1546847Y-17166666D01*
X2499228Y-17166666D02*
X2546847Y-17071428D01*
X2546847Y-17071428D02*
X2546847Y-16880952D01*
X2546847Y-16880952D02*
X2499228Y-16785714D01*
X2499228Y-16785714D02*
X2451609Y-16738095D01*
X2451609Y-16738095D02*
X2356371Y-16690476D01*
X2356371Y-16690476D02*
X2070657Y-16690476D01*
X2070657Y-16690476D02*
X1975419Y-16738095D01*
X1975419Y-16738095D02*
X1927800Y-16785714D01*
X1927800Y-16785714D02*
X1880180Y-16880952D01*
X1880180Y-16880952D02*
X1880180Y-17071428D01*
X1880180Y-17071428D02*
X1927800Y-17166666D01*
X2546847Y-16404761D02*
X2546847Y-16023809D01*
X2880180Y-16261904D02*
X2023038Y-16261904D01*
X2023038Y-16261904D02*
X1927800Y-16214285D01*
X1927800Y-16214285D02*
X1880180Y-16119047D01*
X1880180Y-16119047D02*
X1880180Y-16023809D01*
X1927800Y-15309523D02*
X1880180Y-15404761D01*
X1880180Y-15404761D02*
X1880180Y-15595237D01*
X1880180Y-15595237D02*
X1927800Y-15690475D01*
X1927800Y-15690475D02*
X2023038Y-15738094D01*
X2023038Y-15738094D02*
X2403990Y-15738094D01*
X2403990Y-15738094D02*
X2499228Y-15690475D01*
X2499228Y-15690475D02*
X2546847Y-15595237D01*
X2546847Y-15595237D02*
X2546847Y-15404761D01*
X2546847Y-15404761D02*
X2499228Y-15309523D01*
X2499228Y-15309523D02*
X2403990Y-15261904D01*
X2403990Y-15261904D02*
X2308752Y-15261904D01*
X2308752Y-15261904D02*
X2213514Y-15738094D01*
X1880180Y-14833332D02*
X2546847Y-14833332D01*
X2451609Y-14833332D02*
X2499228Y-14785713D01*
X2499228Y-14785713D02*
X2546847Y-14690475D01*
X2546847Y-14690475D02*
X2546847Y-14547618D01*
X2546847Y-14547618D02*
X2499228Y-14452380D01*
X2499228Y-14452380D02*
X2403990Y-14404761D01*
X2403990Y-14404761D02*
X1880180Y-14404761D01*
X2403990Y-14404761D02*
X2499228Y-14357142D01*
X2499228Y-14357142D02*
X2546847Y-14261904D01*
X2546847Y-14261904D02*
X2546847Y-14119047D01*
X2546847Y-14119047D02*
X2499228Y-14023808D01*
X2499228Y-14023808D02*
X2403990Y-13976189D01*
X2403990Y-13976189D02*
X1880180Y-13976189D01*
X1880180Y-13499999D02*
X2880180Y-13499999D01*
X2499228Y-13499999D02*
X2546847Y-13404761D01*
X2546847Y-13404761D02*
X2546847Y-13214285D01*
X2546847Y-13214285D02*
X2499228Y-13119047D01*
X2499228Y-13119047D02*
X2451609Y-13071428D01*
X2451609Y-13071428D02*
X2356371Y-13023809D01*
X2356371Y-13023809D02*
X2070657Y-13023809D01*
X2070657Y-13023809D02*
X1975419Y-13071428D01*
X1975419Y-13071428D02*
X1927800Y-13119047D01*
X1927800Y-13119047D02*
X1880180Y-13214285D01*
X1880180Y-13214285D02*
X1880180Y-13404761D01*
X1880180Y-13404761D02*
X1927800Y-13499999D01*
X1927800Y-12214285D02*
X1880180Y-12309523D01*
X1880180Y-12309523D02*
X1880180Y-12499999D01*
X1880180Y-12499999D02*
X1927800Y-12595237D01*
X1927800Y-12595237D02*
X2023038Y-12642856D01*
X2023038Y-12642856D02*
X2403990Y-12642856D01*
X2403990Y-12642856D02*
X2499228Y-12595237D01*
X2499228Y-12595237D02*
X2546847Y-12499999D01*
X2546847Y-12499999D02*
X2546847Y-12309523D01*
X2546847Y-12309523D02*
X2499228Y-12214285D01*
X2499228Y-12214285D02*
X2403990Y-12166666D01*
X2403990Y-12166666D02*
X2308752Y-12166666D01*
X2308752Y-12166666D02*
X2213514Y-12642856D01*
X1880180Y-11738094D02*
X2546847Y-11738094D01*
X2356371Y-11738094D02*
X2451609Y-11690475D01*
X2451609Y-11690475D02*
X2499228Y-11642856D01*
X2499228Y-11642856D02*
X2546847Y-11547618D01*
X2546847Y-11547618D02*
X2546847Y-11452380D01*
X2784942Y-10404760D02*
X2832561Y-10357141D01*
X2832561Y-10357141D02*
X2880180Y-10261903D01*
X2880180Y-10261903D02*
X2880180Y-10023808D01*
X2880180Y-10023808D02*
X2832561Y-9928570D01*
X2832561Y-9928570D02*
X2784942Y-9880951D01*
X2784942Y-9880951D02*
X2689704Y-9833332D01*
X2689704Y-9833332D02*
X2594466Y-9833332D01*
X2594466Y-9833332D02*
X2451609Y-9880951D01*
X2451609Y-9880951D02*
X1880180Y-10452379D01*
X1880180Y-10452379D02*
X1880180Y-9833332D01*
X2880180Y-9214284D02*
X2880180Y-9119046D01*
X2880180Y-9119046D02*
X2832561Y-9023808D01*
X2832561Y-9023808D02*
X2784942Y-8976189D01*
X2784942Y-8976189D02*
X2689704Y-8928570D01*
X2689704Y-8928570D02*
X2499228Y-8880951D01*
X2499228Y-8880951D02*
X2261133Y-8880951D01*
X2261133Y-8880951D02*
X2070657Y-8928570D01*
X2070657Y-8928570D02*
X1975419Y-8976189D01*
X1975419Y-8976189D02*
X1927800Y-9023808D01*
X1927800Y-9023808D02*
X1880180Y-9119046D01*
X1880180Y-9119046D02*
X1880180Y-9214284D01*
X1880180Y-9214284D02*
X1927800Y-9309522D01*
X1927800Y-9309522D02*
X1975419Y-9357141D01*
X1975419Y-9357141D02*
X2070657Y-9404760D01*
X2070657Y-9404760D02*
X2261133Y-9452379D01*
X2261133Y-9452379D02*
X2499228Y-9452379D01*
X2499228Y-9452379D02*
X2689704Y-9404760D01*
X2689704Y-9404760D02*
X2784942Y-9357141D01*
X2784942Y-9357141D02*
X2832561Y-9309522D01*
X2832561Y-9309522D02*
X2880180Y-9214284D01*
X2784942Y-8499998D02*
X2832561Y-8452379D01*
X2832561Y-8452379D02*
X2880180Y-8357141D01*
X2880180Y-8357141D02*
X2880180Y-8119046D01*
X2880180Y-8119046D02*
X2832561Y-8023808D01*
X2832561Y-8023808D02*
X2784942Y-7976189D01*
X2784942Y-7976189D02*
X2689704Y-7928570D01*
X2689704Y-7928570D02*
X2594466Y-7928570D01*
X2594466Y-7928570D02*
X2451609Y-7976189D01*
X2451609Y-7976189D02*
X1880180Y-8547617D01*
X1880180Y-8547617D02*
X1880180Y-7928570D01*
X2880180Y-7071427D02*
X2880180Y-7261903D01*
X2880180Y-7261903D02*
X2832561Y-7357141D01*
X2832561Y-7357141D02*
X2784942Y-7404760D01*
X2784942Y-7404760D02*
X2642085Y-7499998D01*
X2642085Y-7499998D02*
X2451609Y-7547617D01*
X2451609Y-7547617D02*
X2070657Y-7547617D01*
X2070657Y-7547617D02*
X1975419Y-7499998D01*
X1975419Y-7499998D02*
X1927800Y-7452379D01*
X1927800Y-7452379D02*
X1880180Y-7357141D01*
X1880180Y-7357141D02*
X1880180Y-7166665D01*
X1880180Y-7166665D02*
X1927800Y-7071427D01*
X1927800Y-7071427D02*
X1975419Y-7023808D01*
X1975419Y-7023808D02*
X2070657Y-6976189D01*
X2070657Y-6976189D02*
X2308752Y-6976189D01*
X2308752Y-6976189D02*
X2403990Y-7023808D01*
X2403990Y-7023808D02*
X2451609Y-7071427D01*
X2451609Y-7071427D02*
X2499228Y-7166665D01*
X2499228Y-7166665D02*
X2499228Y-7357141D01*
X2499228Y-7357141D02*
X2451609Y-7452379D01*
X2451609Y-7452379D02*
X2403990Y-7499998D01*
X2403990Y-7499998D02*
X2308752Y-7547617D01*
X33261905Y-3869819D02*
X33261905Y-2869819D01*
X33261905Y-2869819D02*
X32690477Y-3869819D01*
X32690477Y-3869819D02*
X32690477Y-2869819D01*
X32214286Y-3869819D02*
X32214286Y-2869819D01*
X32214286Y-3346009D02*
X31642858Y-3346009D01*
X31642858Y-3869819D02*
X31642858Y-2869819D01*
X31166667Y-3869819D02*
X31166667Y-2869819D01*
X31166667Y-2869819D02*
X30928572Y-2869819D01*
X30928572Y-2869819D02*
X30785715Y-2917438D01*
X30785715Y-2917438D02*
X30690477Y-3012676D01*
X30690477Y-3012676D02*
X30642858Y-3107914D01*
X30642858Y-3107914D02*
X30595239Y-3298390D01*
X30595239Y-3298390D02*
X30595239Y-3441247D01*
X30595239Y-3441247D02*
X30642858Y-3631723D01*
X30642858Y-3631723D02*
X30690477Y-3726961D01*
X30690477Y-3726961D02*
X30785715Y-3822200D01*
X30785715Y-3822200D02*
X30928572Y-3869819D01*
X30928572Y-3869819D02*
X31166667Y-3869819D01*
X30166667Y-3488866D02*
X29404763Y-3488866D01*
X28357144Y-3774580D02*
X28404763Y-3822200D01*
X28404763Y-3822200D02*
X28547620Y-3869819D01*
X28547620Y-3869819D02*
X28642858Y-3869819D01*
X28642858Y-3869819D02*
X28785715Y-3822200D01*
X28785715Y-3822200D02*
X28880953Y-3726961D01*
X28880953Y-3726961D02*
X28928572Y-3631723D01*
X28928572Y-3631723D02*
X28976191Y-3441247D01*
X28976191Y-3441247D02*
X28976191Y-3298390D01*
X28976191Y-3298390D02*
X28928572Y-3107914D01*
X28928572Y-3107914D02*
X28880953Y-3012676D01*
X28880953Y-3012676D02*
X28785715Y-2917438D01*
X28785715Y-2917438D02*
X28642858Y-2869819D01*
X28642858Y-2869819D02*
X28547620Y-2869819D01*
X28547620Y-2869819D02*
X28404763Y-2917438D01*
X28404763Y-2917438D02*
X28357144Y-2965057D01*
X27404763Y-3869819D02*
X27976191Y-3869819D01*
X27690477Y-3869819D02*
X27690477Y-2869819D01*
X27690477Y-2869819D02*
X27785715Y-3012676D01*
X27785715Y-3012676D02*
X27880953Y-3107914D01*
X27880953Y-3107914D02*
X27976191Y-3155533D01*
X27023810Y-2965057D02*
X26976191Y-2917438D01*
X26976191Y-2917438D02*
X26880953Y-2869819D01*
X26880953Y-2869819D02*
X26642858Y-2869819D01*
X26642858Y-2869819D02*
X26547620Y-2917438D01*
X26547620Y-2917438D02*
X26500001Y-2965057D01*
X26500001Y-2965057D02*
X26452382Y-3060295D01*
X26452382Y-3060295D02*
X26452382Y-3155533D01*
X26452382Y-3155533D02*
X26500001Y-3298390D01*
X26500001Y-3298390D02*
X27071429Y-3869819D01*
X27071429Y-3869819D02*
X26452382Y-3869819D01*
X25880953Y-3298390D02*
X25976191Y-3250771D01*
X25976191Y-3250771D02*
X26023810Y-3203152D01*
X26023810Y-3203152D02*
X26071429Y-3107914D01*
X26071429Y-3107914D02*
X26071429Y-3060295D01*
X26071429Y-3060295D02*
X26023810Y-2965057D01*
X26023810Y-2965057D02*
X25976191Y-2917438D01*
X25976191Y-2917438D02*
X25880953Y-2869819D01*
X25880953Y-2869819D02*
X25690477Y-2869819D01*
X25690477Y-2869819D02*
X25595239Y-2917438D01*
X25595239Y-2917438D02*
X25547620Y-2965057D01*
X25547620Y-2965057D02*
X25500001Y-3060295D01*
X25500001Y-3060295D02*
X25500001Y-3107914D01*
X25500001Y-3107914D02*
X25547620Y-3203152D01*
X25547620Y-3203152D02*
X25595239Y-3250771D01*
X25595239Y-3250771D02*
X25690477Y-3298390D01*
X25690477Y-3298390D02*
X25880953Y-3298390D01*
X25880953Y-3298390D02*
X25976191Y-3346009D01*
X25976191Y-3346009D02*
X26023810Y-3393628D01*
X26023810Y-3393628D02*
X26071429Y-3488866D01*
X26071429Y-3488866D02*
X26071429Y-3679342D01*
X26071429Y-3679342D02*
X26023810Y-3774580D01*
X26023810Y-3774580D02*
X25976191Y-3822200D01*
X25976191Y-3822200D02*
X25880953Y-3869819D01*
X25880953Y-3869819D02*
X25690477Y-3869819D01*
X25690477Y-3869819D02*
X25595239Y-3822200D01*
X25595239Y-3822200D02*
X25547620Y-3774580D01*
X25547620Y-3774580D02*
X25500001Y-3679342D01*
X25500001Y-3679342D02*
X25500001Y-3488866D01*
X25500001Y-3488866D02*
X25547620Y-3393628D01*
X25547620Y-3393628D02*
X25595239Y-3346009D01*
X25595239Y-3346009D02*
X25690477Y-3298390D01*
X25166667Y-2869819D02*
X24547620Y-2869819D01*
X24547620Y-2869819D02*
X24880953Y-3250771D01*
X24880953Y-3250771D02*
X24738096Y-3250771D01*
X24738096Y-3250771D02*
X24642858Y-3298390D01*
X24642858Y-3298390D02*
X24595239Y-3346009D01*
X24595239Y-3346009D02*
X24547620Y-3441247D01*
X24547620Y-3441247D02*
X24547620Y-3679342D01*
X24547620Y-3679342D02*
X24595239Y-3774580D01*
X24595239Y-3774580D02*
X24642858Y-3822200D01*
X24642858Y-3822200D02*
X24738096Y-3869819D01*
X24738096Y-3869819D02*
X25023810Y-3869819D01*
X25023810Y-3869819D02*
X25119048Y-3822200D01*
X25119048Y-3822200D02*
X25166667Y-3774580D01*
X24166667Y-3584104D02*
X23690477Y-3584104D01*
X24261905Y-3869819D02*
X23928572Y-2869819D01*
X23928572Y-2869819D02*
X23595239Y-3869819D01*
X22738096Y-3869819D02*
X23309524Y-3869819D01*
X23023810Y-3869819D02*
X23023810Y-2869819D01*
X23023810Y-2869819D02*
X23119048Y-3012676D01*
X23119048Y-3012676D02*
X23214286Y-3107914D01*
X23214286Y-3107914D02*
X23309524Y-3155533D01*
X22404762Y-2869819D02*
X21738096Y-2869819D01*
X21738096Y-2869819D02*
X22404762Y-3869819D01*
X22404762Y-3869819D02*
X21738096Y-3869819D01*
X20261905Y-3346009D02*
X20119048Y-3393628D01*
X20119048Y-3393628D02*
X20071429Y-3441247D01*
X20071429Y-3441247D02*
X20023810Y-3536485D01*
X20023810Y-3536485D02*
X20023810Y-3679342D01*
X20023810Y-3679342D02*
X20071429Y-3774580D01*
X20071429Y-3774580D02*
X20119048Y-3822200D01*
X20119048Y-3822200D02*
X20214286Y-3869819D01*
X20214286Y-3869819D02*
X20595238Y-3869819D01*
X20595238Y-3869819D02*
X20595238Y-2869819D01*
X20595238Y-2869819D02*
X20261905Y-2869819D01*
X20261905Y-2869819D02*
X20166667Y-2917438D01*
X20166667Y-2917438D02*
X20119048Y-2965057D01*
X20119048Y-2965057D02*
X20071429Y-3060295D01*
X20071429Y-3060295D02*
X20071429Y-3155533D01*
X20071429Y-3155533D02*
X20119048Y-3250771D01*
X20119048Y-3250771D02*
X20166667Y-3298390D01*
X20166667Y-3298390D02*
X20261905Y-3346009D01*
X20261905Y-3346009D02*
X20595238Y-3346009D01*
X19595238Y-3869819D02*
X19595238Y-3203152D01*
X19595238Y-3393628D02*
X19547619Y-3298390D01*
X19547619Y-3298390D02*
X19500000Y-3250771D01*
X19500000Y-3250771D02*
X19404762Y-3203152D01*
X19404762Y-3203152D02*
X19309524Y-3203152D01*
X18595238Y-3822200D02*
X18690476Y-3869819D01*
X18690476Y-3869819D02*
X18880952Y-3869819D01*
X18880952Y-3869819D02*
X18976190Y-3822200D01*
X18976190Y-3822200D02*
X19023809Y-3726961D01*
X19023809Y-3726961D02*
X19023809Y-3346009D01*
X19023809Y-3346009D02*
X18976190Y-3250771D01*
X18976190Y-3250771D02*
X18880952Y-3203152D01*
X18880952Y-3203152D02*
X18690476Y-3203152D01*
X18690476Y-3203152D02*
X18595238Y-3250771D01*
X18595238Y-3250771D02*
X18547619Y-3346009D01*
X18547619Y-3346009D02*
X18547619Y-3441247D01*
X18547619Y-3441247D02*
X19023809Y-3536485D01*
X17690476Y-3869819D02*
X17690476Y-3346009D01*
X17690476Y-3346009D02*
X17738095Y-3250771D01*
X17738095Y-3250771D02*
X17833333Y-3203152D01*
X17833333Y-3203152D02*
X18023809Y-3203152D01*
X18023809Y-3203152D02*
X18119047Y-3250771D01*
X17690476Y-3822200D02*
X17785714Y-3869819D01*
X17785714Y-3869819D02*
X18023809Y-3869819D01*
X18023809Y-3869819D02*
X18119047Y-3822200D01*
X18119047Y-3822200D02*
X18166666Y-3726961D01*
X18166666Y-3726961D02*
X18166666Y-3631723D01*
X18166666Y-3631723D02*
X18119047Y-3536485D01*
X18119047Y-3536485D02*
X18023809Y-3488866D01*
X18023809Y-3488866D02*
X17785714Y-3488866D01*
X17785714Y-3488866D02*
X17690476Y-3441247D01*
X17214285Y-3869819D02*
X17214285Y-2869819D01*
X17119047Y-3488866D02*
X16833333Y-3869819D01*
X16833333Y-3203152D02*
X17214285Y-3584104D01*
X16261904Y-3869819D02*
X16357142Y-3822200D01*
X16357142Y-3822200D02*
X16404761Y-3774580D01*
X16404761Y-3774580D02*
X16452380Y-3679342D01*
X16452380Y-3679342D02*
X16452380Y-3393628D01*
X16452380Y-3393628D02*
X16404761Y-3298390D01*
X16404761Y-3298390D02*
X16357142Y-3250771D01*
X16357142Y-3250771D02*
X16261904Y-3203152D01*
X16261904Y-3203152D02*
X16119047Y-3203152D01*
X16119047Y-3203152D02*
X16023809Y-3250771D01*
X16023809Y-3250771D02*
X15976190Y-3298390D01*
X15976190Y-3298390D02*
X15928571Y-3393628D01*
X15928571Y-3393628D02*
X15928571Y-3679342D01*
X15928571Y-3679342D02*
X15976190Y-3774580D01*
X15976190Y-3774580D02*
X16023809Y-3822200D01*
X16023809Y-3822200D02*
X16119047Y-3869819D01*
X16119047Y-3869819D02*
X16261904Y-3869819D01*
X15071428Y-3203152D02*
X15071428Y-3869819D01*
X15499999Y-3203152D02*
X15499999Y-3726961D01*
X15499999Y-3726961D02*
X15452380Y-3822200D01*
X15452380Y-3822200D02*
X15357142Y-3869819D01*
X15357142Y-3869819D02*
X15214285Y-3869819D01*
X15214285Y-3869819D02*
X15119047Y-3822200D01*
X15119047Y-3822200D02*
X15071428Y-3774580D01*
X14738094Y-3203152D02*
X14357142Y-3203152D01*
X14595237Y-2869819D02*
X14595237Y-3726961D01*
X14595237Y-3726961D02*
X14547618Y-3822200D01*
X14547618Y-3822200D02*
X14452380Y-3869819D01*
X14452380Y-3869819D02*
X14357142Y-3869819D01*
X13261903Y-3869819D02*
X13261903Y-2869819D01*
X13261903Y-2869819D02*
X12880951Y-2869819D01*
X12880951Y-2869819D02*
X12785713Y-2917438D01*
X12785713Y-2917438D02*
X12738094Y-2965057D01*
X12738094Y-2965057D02*
X12690475Y-3060295D01*
X12690475Y-3060295D02*
X12690475Y-3203152D01*
X12690475Y-3203152D02*
X12738094Y-3298390D01*
X12738094Y-3298390D02*
X12785713Y-3346009D01*
X12785713Y-3346009D02*
X12880951Y-3393628D01*
X12880951Y-3393628D02*
X13261903Y-3393628D01*
X11690475Y-3774580D02*
X11738094Y-3822200D01*
X11738094Y-3822200D02*
X11880951Y-3869819D01*
X11880951Y-3869819D02*
X11976189Y-3869819D01*
X11976189Y-3869819D02*
X12119046Y-3822200D01*
X12119046Y-3822200D02*
X12214284Y-3726961D01*
X12214284Y-3726961D02*
X12261903Y-3631723D01*
X12261903Y-3631723D02*
X12309522Y-3441247D01*
X12309522Y-3441247D02*
X12309522Y-3298390D01*
X12309522Y-3298390D02*
X12261903Y-3107914D01*
X12261903Y-3107914D02*
X12214284Y-3012676D01*
X12214284Y-3012676D02*
X12119046Y-2917438D01*
X12119046Y-2917438D02*
X11976189Y-2869819D01*
X11976189Y-2869819D02*
X11880951Y-2869819D01*
X11880951Y-2869819D02*
X11738094Y-2917438D01*
X11738094Y-2917438D02*
X11690475Y-2965057D01*
X10928570Y-3346009D02*
X10785713Y-3393628D01*
X10785713Y-3393628D02*
X10738094Y-3441247D01*
X10738094Y-3441247D02*
X10690475Y-3536485D01*
X10690475Y-3536485D02*
X10690475Y-3679342D01*
X10690475Y-3679342D02*
X10738094Y-3774580D01*
X10738094Y-3774580D02*
X10785713Y-3822200D01*
X10785713Y-3822200D02*
X10880951Y-3869819D01*
X10880951Y-3869819D02*
X11261903Y-3869819D01*
X11261903Y-3869819D02*
X11261903Y-2869819D01*
X11261903Y-2869819D02*
X10928570Y-2869819D01*
X10928570Y-2869819D02*
X10833332Y-2917438D01*
X10833332Y-2917438D02*
X10785713Y-2965057D01*
X10785713Y-2965057D02*
X10738094Y-3060295D01*
X10738094Y-3060295D02*
X10738094Y-3155533D01*
X10738094Y-3155533D02*
X10785713Y-3250771D01*
X10785713Y-3250771D02*
X10833332Y-3298390D01*
X10833332Y-3298390D02*
X10928570Y-3346009D01*
X10928570Y-3346009D02*
X11261903Y-3346009D01*
X40679887Y-17931009D02*
X40537030Y-17978628D01*
X40537030Y-17978628D02*
X40489411Y-18026247D01*
X40489411Y-18026247D02*
X40441792Y-18121485D01*
X40441792Y-18121485D02*
X40441792Y-18264342D01*
X40441792Y-18264342D02*
X40489411Y-18359580D01*
X40489411Y-18359580D02*
X40537030Y-18407200D01*
X40537030Y-18407200D02*
X40632268Y-18454819D01*
X40632268Y-18454819D02*
X41013220Y-18454819D01*
X41013220Y-18454819D02*
X41013220Y-17454819D01*
X41013220Y-17454819D02*
X40679887Y-17454819D01*
X40679887Y-17454819D02*
X40584649Y-17502438D01*
X40584649Y-17502438D02*
X40537030Y-17550057D01*
X40537030Y-17550057D02*
X40489411Y-17645295D01*
X40489411Y-17645295D02*
X40489411Y-17740533D01*
X40489411Y-17740533D02*
X40537030Y-17835771D01*
X40537030Y-17835771D02*
X40584649Y-17883390D01*
X40584649Y-17883390D02*
X40679887Y-17931009D01*
X40679887Y-17931009D02*
X41013220Y-17931009D01*
X40489411Y-14702438D02*
X40584649Y-14654819D01*
X40584649Y-14654819D02*
X40727506Y-14654819D01*
X40727506Y-14654819D02*
X40870363Y-14702438D01*
X40870363Y-14702438D02*
X40965601Y-14797676D01*
X40965601Y-14797676D02*
X41013220Y-14892914D01*
X41013220Y-14892914D02*
X41060839Y-15083390D01*
X41060839Y-15083390D02*
X41060839Y-15226247D01*
X41060839Y-15226247D02*
X41013220Y-15416723D01*
X41013220Y-15416723D02*
X40965601Y-15511961D01*
X40965601Y-15511961D02*
X40870363Y-15607200D01*
X40870363Y-15607200D02*
X40727506Y-15654819D01*
X40727506Y-15654819D02*
X40632268Y-15654819D01*
X40632268Y-15654819D02*
X40489411Y-15607200D01*
X40489411Y-15607200D02*
X40441792Y-15559580D01*
X40441792Y-15559580D02*
X40441792Y-15226247D01*
X40441792Y-15226247D02*
X40632268Y-15226247D01*
X40441792Y-12854819D02*
X40775125Y-12378628D01*
X41013220Y-12854819D02*
X41013220Y-11854819D01*
X41013220Y-11854819D02*
X40632268Y-11854819D01*
X40632268Y-11854819D02*
X40537030Y-11902438D01*
X40537030Y-11902438D02*
X40489411Y-11950057D01*
X40489411Y-11950057D02*
X40441792Y-12045295D01*
X40441792Y-12045295D02*
X40441792Y-12188152D01*
X40441792Y-12188152D02*
X40489411Y-12283390D01*
X40489411Y-12283390D02*
X40537030Y-12331009D01*
X40537030Y-12331009D02*
X40632268Y-12378628D01*
X40632268Y-12378628D02*
X41013220Y-12378628D01*
X35216666Y-15654819D02*
X35549999Y-15178628D01*
X35788094Y-15654819D02*
X35788094Y-14654819D01*
X35788094Y-14654819D02*
X35407142Y-14654819D01*
X35407142Y-14654819D02*
X35311904Y-14702438D01*
X35311904Y-14702438D02*
X35264285Y-14750057D01*
X35264285Y-14750057D02*
X35216666Y-14845295D01*
X35216666Y-14845295D02*
X35216666Y-14988152D01*
X35216666Y-14988152D02*
X35264285Y-15083390D01*
X35264285Y-15083390D02*
X35311904Y-15131009D01*
X35311904Y-15131009D02*
X35407142Y-15178628D01*
X35407142Y-15178628D02*
X35788094Y-15178628D01*
X34835713Y-14750057D02*
X34788094Y-14702438D01*
X34788094Y-14702438D02*
X34692856Y-14654819D01*
X34692856Y-14654819D02*
X34454761Y-14654819D01*
X34454761Y-14654819D02*
X34359523Y-14702438D01*
X34359523Y-14702438D02*
X34311904Y-14750057D01*
X34311904Y-14750057D02*
X34264285Y-14845295D01*
X34264285Y-14845295D02*
X34264285Y-14940533D01*
X34264285Y-14940533D02*
X34311904Y-15083390D01*
X34311904Y-15083390D02*
X34883332Y-15654819D01*
X34883332Y-15654819D02*
X34264285Y-15654819D01*
X35216666Y-18454819D02*
X35549999Y-17978628D01*
X35788094Y-18454819D02*
X35788094Y-17454819D01*
X35788094Y-17454819D02*
X35407142Y-17454819D01*
X35407142Y-17454819D02*
X35311904Y-17502438D01*
X35311904Y-17502438D02*
X35264285Y-17550057D01*
X35264285Y-17550057D02*
X35216666Y-17645295D01*
X35216666Y-17645295D02*
X35216666Y-17788152D01*
X35216666Y-17788152D02*
X35264285Y-17883390D01*
X35264285Y-17883390D02*
X35311904Y-17931009D01*
X35311904Y-17931009D02*
X35407142Y-17978628D01*
X35407142Y-17978628D02*
X35788094Y-17978628D01*
X34883332Y-17454819D02*
X34264285Y-17454819D01*
X34264285Y-17454819D02*
X34597618Y-17835771D01*
X34597618Y-17835771D02*
X34454761Y-17835771D01*
X34454761Y-17835771D02*
X34359523Y-17883390D01*
X34359523Y-17883390D02*
X34311904Y-17931009D01*
X34311904Y-17931009D02*
X34264285Y-18026247D01*
X34264285Y-18026247D02*
X34264285Y-18264342D01*
X34264285Y-18264342D02*
X34311904Y-18359580D01*
X34311904Y-18359580D02*
X34359523Y-18407200D01*
X34359523Y-18407200D02*
X34454761Y-18454819D01*
X34454761Y-18454819D02*
X34740475Y-18454819D01*
X34740475Y-18454819D02*
X34835713Y-18407200D01*
X34835713Y-18407200D02*
X34883332Y-18359580D01*
X35216666Y-12854819D02*
X35549999Y-12378628D01*
X35788094Y-12854819D02*
X35788094Y-11854819D01*
X35788094Y-11854819D02*
X35407142Y-11854819D01*
X35407142Y-11854819D02*
X35311904Y-11902438D01*
X35311904Y-11902438D02*
X35264285Y-11950057D01*
X35264285Y-11950057D02*
X35216666Y-12045295D01*
X35216666Y-12045295D02*
X35216666Y-12188152D01*
X35216666Y-12188152D02*
X35264285Y-12283390D01*
X35264285Y-12283390D02*
X35311904Y-12331009D01*
X35311904Y-12331009D02*
X35407142Y-12378628D01*
X35407142Y-12378628D02*
X35788094Y-12378628D01*
X34264285Y-12854819D02*
X34835713Y-12854819D01*
X34549999Y-12854819D02*
X34549999Y-11854819D01*
X34549999Y-11854819D02*
X34645237Y-11997676D01*
X34645237Y-11997676D02*
X34740475Y-12092914D01*
X34740475Y-12092914D02*
X34835713Y-12140533D01*
X10359580Y-21783333D02*
X10407200Y-21735714D01*
X10407200Y-21735714D02*
X10454819Y-21592857D01*
X10454819Y-21592857D02*
X10454819Y-21497619D01*
X10454819Y-21497619D02*
X10407200Y-21354762D01*
X10407200Y-21354762D02*
X10311961Y-21259524D01*
X10311961Y-21259524D02*
X10216723Y-21211905D01*
X10216723Y-21211905D02*
X10026247Y-21164286D01*
X10026247Y-21164286D02*
X9883390Y-21164286D01*
X9883390Y-21164286D02*
X9692914Y-21211905D01*
X9692914Y-21211905D02*
X9597676Y-21259524D01*
X9597676Y-21259524D02*
X9502438Y-21354762D01*
X9502438Y-21354762D02*
X9454819Y-21497619D01*
X9454819Y-21497619D02*
X9454819Y-21592857D01*
X9454819Y-21592857D02*
X9502438Y-21735714D01*
X9502438Y-21735714D02*
X9550057Y-21783333D01*
X9883390Y-22354762D02*
X9835771Y-22259524D01*
X9835771Y-22259524D02*
X9788152Y-22211905D01*
X9788152Y-22211905D02*
X9692914Y-22164286D01*
X9692914Y-22164286D02*
X9645295Y-22164286D01*
X9645295Y-22164286D02*
X9550057Y-22211905D01*
X9550057Y-22211905D02*
X9502438Y-22259524D01*
X9502438Y-22259524D02*
X9454819Y-22354762D01*
X9454819Y-22354762D02*
X9454819Y-22545238D01*
X9454819Y-22545238D02*
X9502438Y-22640476D01*
X9502438Y-22640476D02*
X9550057Y-22688095D01*
X9550057Y-22688095D02*
X9645295Y-22735714D01*
X9645295Y-22735714D02*
X9692914Y-22735714D01*
X9692914Y-22735714D02*
X9788152Y-22688095D01*
X9788152Y-22688095D02*
X9835771Y-22640476D01*
X9835771Y-22640476D02*
X9883390Y-22545238D01*
X9883390Y-22545238D02*
X9883390Y-22354762D01*
X9883390Y-22354762D02*
X9931009Y-22259524D01*
X9931009Y-22259524D02*
X9978628Y-22211905D01*
X9978628Y-22211905D02*
X10073866Y-22164286D01*
X10073866Y-22164286D02*
X10264342Y-22164286D01*
X10264342Y-22164286D02*
X10359580Y-22211905D01*
X10359580Y-22211905D02*
X10407200Y-22259524D01*
X10407200Y-22259524D02*
X10454819Y-22354762D01*
X10454819Y-22354762D02*
X10454819Y-22545238D01*
X10454819Y-22545238D02*
X10407200Y-22640476D01*
X10407200Y-22640476D02*
X10359580Y-22688095D01*
X10359580Y-22688095D02*
X10264342Y-22735714D01*
X10264342Y-22735714D02*
X10073866Y-22735714D01*
X10073866Y-22735714D02*
X9978628Y-22688095D01*
X9978628Y-22688095D02*
X9931009Y-22640476D01*
X9931009Y-22640476D02*
X9883390Y-22545238D01*
X12502437Y-21783333D02*
X12550057Y-21735714D01*
X12550057Y-21735714D02*
X12597676Y-21592857D01*
X12597676Y-21592857D02*
X12597676Y-21497619D01*
X12597676Y-21497619D02*
X12550057Y-21354762D01*
X12550057Y-21354762D02*
X12454818Y-21259524D01*
X12454818Y-21259524D02*
X12359580Y-21211905D01*
X12359580Y-21211905D02*
X12169104Y-21164286D01*
X12169104Y-21164286D02*
X12026247Y-21164286D01*
X12026247Y-21164286D02*
X11835771Y-21211905D01*
X11835771Y-21211905D02*
X11740533Y-21259524D01*
X11740533Y-21259524D02*
X11645295Y-21354762D01*
X11645295Y-21354762D02*
X11597676Y-21497619D01*
X11597676Y-21497619D02*
X11597676Y-21592857D01*
X11597676Y-21592857D02*
X11645295Y-21735714D01*
X11645295Y-21735714D02*
X11692914Y-21783333D01*
X11597676Y-22116667D02*
X11597676Y-22783333D01*
X11597676Y-22783333D02*
X12597676Y-22354762D01*
X14645294Y-21783333D02*
X14692914Y-21735714D01*
X14692914Y-21735714D02*
X14740533Y-21592857D01*
X14740533Y-21592857D02*
X14740533Y-21497619D01*
X14740533Y-21497619D02*
X14692914Y-21354762D01*
X14692914Y-21354762D02*
X14597675Y-21259524D01*
X14597675Y-21259524D02*
X14502437Y-21211905D01*
X14502437Y-21211905D02*
X14311961Y-21164286D01*
X14311961Y-21164286D02*
X14169104Y-21164286D01*
X14169104Y-21164286D02*
X13978628Y-21211905D01*
X13978628Y-21211905D02*
X13883390Y-21259524D01*
X13883390Y-21259524D02*
X13788152Y-21354762D01*
X13788152Y-21354762D02*
X13740533Y-21497619D01*
X13740533Y-21497619D02*
X13740533Y-21592857D01*
X13740533Y-21592857D02*
X13788152Y-21735714D01*
X13788152Y-21735714D02*
X13835771Y-21783333D01*
X13740533Y-22640476D02*
X13740533Y-22450000D01*
X13740533Y-22450000D02*
X13788152Y-22354762D01*
X13788152Y-22354762D02*
X13835771Y-22307143D01*
X13835771Y-22307143D02*
X13978628Y-22211905D01*
X13978628Y-22211905D02*
X14169104Y-22164286D01*
X14169104Y-22164286D02*
X14550056Y-22164286D01*
X14550056Y-22164286D02*
X14645294Y-22211905D01*
X14645294Y-22211905D02*
X14692914Y-22259524D01*
X14692914Y-22259524D02*
X14740533Y-22354762D01*
X14740533Y-22354762D02*
X14740533Y-22545238D01*
X14740533Y-22545238D02*
X14692914Y-22640476D01*
X14692914Y-22640476D02*
X14645294Y-22688095D01*
X14645294Y-22688095D02*
X14550056Y-22735714D01*
X14550056Y-22735714D02*
X14311961Y-22735714D01*
X14311961Y-22735714D02*
X14216723Y-22688095D01*
X14216723Y-22688095D02*
X14169104Y-22640476D01*
X14169104Y-22640476D02*
X14121485Y-22545238D01*
X14121485Y-22545238D02*
X14121485Y-22354762D01*
X14121485Y-22354762D02*
X14169104Y-22259524D01*
X14169104Y-22259524D02*
X14216723Y-22211905D01*
X14216723Y-22211905D02*
X14311961Y-22164286D01*
X16788151Y-21783333D02*
X16835771Y-21735714D01*
X16835771Y-21735714D02*
X16883390Y-21592857D01*
X16883390Y-21592857D02*
X16883390Y-21497619D01*
X16883390Y-21497619D02*
X16835771Y-21354762D01*
X16835771Y-21354762D02*
X16740532Y-21259524D01*
X16740532Y-21259524D02*
X16645294Y-21211905D01*
X16645294Y-21211905D02*
X16454818Y-21164286D01*
X16454818Y-21164286D02*
X16311961Y-21164286D01*
X16311961Y-21164286D02*
X16121485Y-21211905D01*
X16121485Y-21211905D02*
X16026247Y-21259524D01*
X16026247Y-21259524D02*
X15931009Y-21354762D01*
X15931009Y-21354762D02*
X15883390Y-21497619D01*
X15883390Y-21497619D02*
X15883390Y-21592857D01*
X15883390Y-21592857D02*
X15931009Y-21735714D01*
X15931009Y-21735714D02*
X15978628Y-21783333D01*
X15883390Y-22688095D02*
X15883390Y-22211905D01*
X15883390Y-22211905D02*
X16359580Y-22164286D01*
X16359580Y-22164286D02*
X16311961Y-22211905D01*
X16311961Y-22211905D02*
X16264342Y-22307143D01*
X16264342Y-22307143D02*
X16264342Y-22545238D01*
X16264342Y-22545238D02*
X16311961Y-22640476D01*
X16311961Y-22640476D02*
X16359580Y-22688095D01*
X16359580Y-22688095D02*
X16454818Y-22735714D01*
X16454818Y-22735714D02*
X16692913Y-22735714D01*
X16692913Y-22735714D02*
X16788151Y-22688095D01*
X16788151Y-22688095D02*
X16835771Y-22640476D01*
X16835771Y-22640476D02*
X16883390Y-22545238D01*
X16883390Y-22545238D02*
X16883390Y-22307143D01*
X16883390Y-22307143D02*
X16835771Y-22211905D01*
X16835771Y-22211905D02*
X16788151Y-22164286D01*
X18931009Y-21783333D02*
X18978629Y-21735714D01*
X18978629Y-21735714D02*
X19026248Y-21592857D01*
X19026248Y-21592857D02*
X19026248Y-21497619D01*
X19026248Y-21497619D02*
X18978629Y-21354762D01*
X18978629Y-21354762D02*
X18883390Y-21259524D01*
X18883390Y-21259524D02*
X18788152Y-21211905D01*
X18788152Y-21211905D02*
X18597676Y-21164286D01*
X18597676Y-21164286D02*
X18454819Y-21164286D01*
X18454819Y-21164286D02*
X18264343Y-21211905D01*
X18264343Y-21211905D02*
X18169105Y-21259524D01*
X18169105Y-21259524D02*
X18073867Y-21354762D01*
X18073867Y-21354762D02*
X18026248Y-21497619D01*
X18026248Y-21497619D02*
X18026248Y-21592857D01*
X18026248Y-21592857D02*
X18073867Y-21735714D01*
X18073867Y-21735714D02*
X18121486Y-21783333D01*
X18359581Y-22640476D02*
X19026248Y-22640476D01*
X17978629Y-22402381D02*
X18692914Y-22164286D01*
X18692914Y-22164286D02*
X18692914Y-22783333D01*
X26359580Y-21783333D02*
X26407200Y-21735714D01*
X26407200Y-21735714D02*
X26454819Y-21592857D01*
X26454819Y-21592857D02*
X26454819Y-21497619D01*
X26454819Y-21497619D02*
X26407200Y-21354762D01*
X26407200Y-21354762D02*
X26311961Y-21259524D01*
X26311961Y-21259524D02*
X26216723Y-21211905D01*
X26216723Y-21211905D02*
X26026247Y-21164286D01*
X26026247Y-21164286D02*
X25883390Y-21164286D01*
X25883390Y-21164286D02*
X25692914Y-21211905D01*
X25692914Y-21211905D02*
X25597676Y-21259524D01*
X25597676Y-21259524D02*
X25502438Y-21354762D01*
X25502438Y-21354762D02*
X25454819Y-21497619D01*
X25454819Y-21497619D02*
X25454819Y-21592857D01*
X25454819Y-21592857D02*
X25502438Y-21735714D01*
X25502438Y-21735714D02*
X25550057Y-21783333D01*
X25454819Y-22116667D02*
X25454819Y-22735714D01*
X25454819Y-22735714D02*
X25835771Y-22402381D01*
X25835771Y-22402381D02*
X25835771Y-22545238D01*
X25835771Y-22545238D02*
X25883390Y-22640476D01*
X25883390Y-22640476D02*
X25931009Y-22688095D01*
X25931009Y-22688095D02*
X26026247Y-22735714D01*
X26026247Y-22735714D02*
X26264342Y-22735714D01*
X26264342Y-22735714D02*
X26359580Y-22688095D01*
X26359580Y-22688095D02*
X26407200Y-22640476D01*
X26407200Y-22640476D02*
X26454819Y-22545238D01*
X26454819Y-22545238D02*
X26454819Y-22259524D01*
X26454819Y-22259524D02*
X26407200Y-22164286D01*
X26407200Y-22164286D02*
X26359580Y-22116667D01*
X21573866Y-21783333D02*
X21621486Y-21735714D01*
X21621486Y-21735714D02*
X21669105Y-21592857D01*
X21669105Y-21592857D02*
X21669105Y-21497619D01*
X21669105Y-21497619D02*
X21621486Y-21354762D01*
X21621486Y-21354762D02*
X21526247Y-21259524D01*
X21526247Y-21259524D02*
X21431009Y-21211905D01*
X21431009Y-21211905D02*
X21240533Y-21164286D01*
X21240533Y-21164286D02*
X21097676Y-21164286D01*
X21097676Y-21164286D02*
X20907200Y-21211905D01*
X20907200Y-21211905D02*
X20811962Y-21259524D01*
X20811962Y-21259524D02*
X20716724Y-21354762D01*
X20716724Y-21354762D02*
X20669105Y-21497619D01*
X20669105Y-21497619D02*
X20669105Y-21592857D01*
X20669105Y-21592857D02*
X20716724Y-21735714D01*
X20716724Y-21735714D02*
X20764343Y-21783333D01*
X20764343Y-22164286D02*
X20716724Y-22211905D01*
X20716724Y-22211905D02*
X20669105Y-22307143D01*
X20669105Y-22307143D02*
X20669105Y-22545238D01*
X20669105Y-22545238D02*
X20716724Y-22640476D01*
X20716724Y-22640476D02*
X20764343Y-22688095D01*
X20764343Y-22688095D02*
X20859581Y-22735714D01*
X20859581Y-22735714D02*
X20954819Y-22735714D01*
X20954819Y-22735714D02*
X21097676Y-22688095D01*
X21097676Y-22688095D02*
X21669105Y-22116667D01*
X21669105Y-22116667D02*
X21669105Y-22735714D01*
X23716723Y-21783333D02*
X23764343Y-21735714D01*
X23764343Y-21735714D02*
X23811962Y-21592857D01*
X23811962Y-21592857D02*
X23811962Y-21497619D01*
X23811962Y-21497619D02*
X23764343Y-21354762D01*
X23764343Y-21354762D02*
X23669104Y-21259524D01*
X23669104Y-21259524D02*
X23573866Y-21211905D01*
X23573866Y-21211905D02*
X23383390Y-21164286D01*
X23383390Y-21164286D02*
X23240533Y-21164286D01*
X23240533Y-21164286D02*
X23050057Y-21211905D01*
X23050057Y-21211905D02*
X22954819Y-21259524D01*
X22954819Y-21259524D02*
X22859581Y-21354762D01*
X22859581Y-21354762D02*
X22811962Y-21497619D01*
X22811962Y-21497619D02*
X22811962Y-21592857D01*
X22811962Y-21592857D02*
X22859581Y-21735714D01*
X22859581Y-21735714D02*
X22907200Y-21783333D01*
X23811962Y-22735714D02*
X23811962Y-22164286D01*
X23811962Y-22450000D02*
X22811962Y-22450000D01*
X22811962Y-22450000D02*
X22954819Y-22354762D01*
X22954819Y-22354762D02*
X23050057Y-22259524D01*
X23050057Y-22259524D02*
X23097676Y-22164286D01*
D12*
%TO.C,G\u002A\u002A\u002A*%
X19444776Y-5114674D02*
X19343865Y-5179667D01*
X19232839Y-5278049D01*
X19120757Y-5401711D01*
X19016680Y-5542545D01*
X19008845Y-5554505D01*
X18880263Y-5788886D01*
X18791966Y-6038062D01*
X18740302Y-6314494D01*
X18724161Y-6526178D01*
X18727022Y-6809376D01*
X18760193Y-7087055D01*
X18826270Y-7369378D01*
X18927849Y-7666509D01*
X19067526Y-7988614D01*
X19131099Y-8119608D01*
X19288665Y-8417405D01*
X19453089Y-8687355D01*
X19634488Y-8943650D01*
X19842983Y-9200482D01*
X20088691Y-9472045D01*
X20115701Y-9500561D01*
X20251790Y-9650186D01*
X20361296Y-9788169D01*
X20457347Y-9933389D01*
X20553070Y-10104728D01*
X20601511Y-10199316D01*
X20659290Y-10308672D01*
X20712852Y-10400012D01*
X20754104Y-10459960D01*
X20767740Y-10474097D01*
X20786357Y-10499272D01*
X20801221Y-10549524D01*
X20813473Y-10632740D01*
X20824254Y-10756803D01*
X20834703Y-10929598D01*
X20835320Y-10941235D01*
X20847319Y-11107883D01*
X20867103Y-11313591D01*
X20892727Y-11541178D01*
X20922249Y-11773460D01*
X20953725Y-11993254D01*
X20955962Y-12007802D01*
X20986882Y-12209858D01*
X21016962Y-12410167D01*
X21044313Y-12595874D01*
X21067047Y-12754123D01*
X21083275Y-12872059D01*
X21086098Y-12893761D01*
X21117749Y-13093753D01*
X21163265Y-13316680D01*
X21218947Y-13548827D01*
X21281098Y-13776481D01*
X21346022Y-13985929D01*
X21410022Y-14163456D01*
X21457944Y-14273023D01*
X21531349Y-14409677D01*
X21602681Y-14511441D01*
X21686790Y-14597936D01*
X21734592Y-14638597D01*
X21826077Y-14710052D01*
X21910861Y-14771077D01*
X21970012Y-14808127D01*
X22075561Y-14847573D01*
X22187357Y-14866136D01*
X22280977Y-14860420D01*
X22300478Y-14854062D01*
X22354277Y-14817014D01*
X22432578Y-14745332D01*
X22525412Y-14649876D01*
X22622810Y-14541505D01*
X22714804Y-14431078D01*
X22791423Y-14329456D01*
X22817028Y-14291376D01*
X22862266Y-14213751D01*
X22924881Y-14096779D01*
X22998423Y-13952985D01*
X23076445Y-13794891D01*
X23126970Y-13689417D01*
X23276776Y-13348036D01*
X23390129Y-13030454D01*
X23471575Y-12720753D01*
X23525659Y-12403017D01*
X23544769Y-12226067D01*
X23554419Y-12073697D01*
X23560041Y-11888727D01*
X23561836Y-11684355D01*
X23560007Y-11473778D01*
X23554755Y-11270194D01*
X23548556Y-11136002D01*
X23021477Y-11136002D01*
X23021415Y-11374733D01*
X23018243Y-11583932D01*
X23013565Y-11799132D01*
X23008419Y-11968172D01*
X23001703Y-12101969D01*
X22992316Y-12211438D01*
X22979160Y-12307495D01*
X22961132Y-12401056D01*
X22937133Y-12503036D01*
X22917999Y-12578276D01*
X22865482Y-12750852D01*
X22789911Y-12957725D01*
X22697715Y-13184317D01*
X22595320Y-13416049D01*
X22489156Y-13638343D01*
X22385648Y-13836621D01*
X22296218Y-13988545D01*
X22224760Y-14091812D01*
X22146258Y-14191915D01*
X22069404Y-14279321D01*
X22002891Y-14344500D01*
X21955411Y-14377918D01*
X21940114Y-14379051D01*
X21921151Y-14346367D01*
X21891995Y-14272452D01*
X21857873Y-14171032D01*
X21845158Y-14129690D01*
X21769800Y-13860453D01*
X21705231Y-13587798D01*
X21647826Y-13294674D01*
X21593960Y-12964031D01*
X21586120Y-12911230D01*
X21555871Y-12705027D01*
X21521191Y-12468232D01*
X21485868Y-12226736D01*
X21453692Y-12006431D01*
X21446182Y-11954943D01*
X21408443Y-11665110D01*
X21377633Y-11357823D01*
X21353400Y-11026279D01*
X21335389Y-10663674D01*
X21323247Y-10263204D01*
X21316622Y-9818066D01*
X21315056Y-9428674D01*
X21315056Y-8473907D01*
X21420444Y-8630493D01*
X21478222Y-8706181D01*
X21569609Y-8813566D01*
X21687153Y-8944694D01*
X21823405Y-9091611D01*
X21970914Y-9246363D01*
X22122230Y-9400995D01*
X22269903Y-9547555D01*
X22366471Y-9640472D01*
X22448907Y-9724056D01*
X22551594Y-9836164D01*
X22659705Y-9960291D01*
X22733844Y-10049395D01*
X22948790Y-10313917D01*
X22990042Y-10620722D01*
X23006075Y-10768709D01*
X23016458Y-10937231D01*
X23021477Y-11136002D01*
X23548556Y-11136002D01*
X23546283Y-11086803D01*
X23534793Y-10936801D01*
X23523712Y-10850570D01*
X23505611Y-10745073D01*
X23801626Y-10870273D01*
X23956593Y-10932382D01*
X24126574Y-10995063D01*
X24285029Y-11048727D01*
X24354494Y-11070013D01*
X24480996Y-11103180D01*
X24628023Y-11136200D01*
X24782762Y-11166836D01*
X24932403Y-11192849D01*
X25064134Y-11212002D01*
X25165143Y-11222057D01*
X25220366Y-11221265D01*
X25221923Y-11203240D01*
X25184693Y-11163406D01*
X25119007Y-11109028D01*
X25035198Y-11047374D01*
X24943596Y-10985709D01*
X24854533Y-10931299D01*
X24778340Y-10891411D01*
X24725710Y-10873359D01*
X24414920Y-10827288D01*
X24143459Y-10776774D01*
X23914933Y-10722777D01*
X23732946Y-10666257D01*
X23601102Y-10608175D01*
X23526998Y-10553975D01*
X23497986Y-10512949D01*
X23472895Y-10452150D01*
X23449067Y-10361872D01*
X23423843Y-10232404D01*
X23400632Y-10092575D01*
X23349847Y-9814494D01*
X22859040Y-9814494D01*
X22456374Y-9406110D01*
X22253160Y-9193862D01*
X22086666Y-9004583D01*
X21948273Y-8826567D01*
X21829362Y-8648107D01*
X21721313Y-8457498D01*
X21643362Y-8301910D01*
X21577169Y-8147363D01*
X21505950Y-7953017D01*
X21434875Y-7735233D01*
X21369114Y-7510375D01*
X21313836Y-7294802D01*
X21287817Y-7176553D01*
X21256684Y-7054943D01*
X21220249Y-6982130D01*
X21173379Y-6949835D01*
X21145057Y-6946292D01*
X21098104Y-6930642D01*
X21021984Y-6889614D01*
X20933239Y-6832134D01*
X20847523Y-6775038D01*
X20778033Y-6734100D01*
X20739512Y-6717987D01*
X20739088Y-6717977D01*
X20730203Y-6745214D01*
X20724723Y-6821940D01*
X20722471Y-6940679D01*
X20723274Y-7093953D01*
X20726956Y-7274285D01*
X20733342Y-7474198D01*
X20742257Y-7686215D01*
X20753525Y-7902860D01*
X20766973Y-8116654D01*
X20774167Y-8216292D01*
X20781223Y-8334378D01*
X20787275Y-8483530D01*
X20792270Y-8655266D01*
X20796150Y-8841106D01*
X20798859Y-9032569D01*
X20800341Y-9221174D01*
X20800541Y-9398440D01*
X20799402Y-9555885D01*
X20796868Y-9685030D01*
X20792884Y-9777393D01*
X20787392Y-9824494D01*
X20784825Y-9828764D01*
X20757597Y-9809990D01*
X20703808Y-9761289D01*
X20649264Y-9707471D01*
X20472315Y-9518155D01*
X20291803Y-9309151D01*
X20125474Y-9101518D01*
X20030704Y-8973515D01*
X19912643Y-8791915D01*
X19786969Y-8572255D01*
X19662033Y-8331274D01*
X19546186Y-8085712D01*
X19447782Y-7852309D01*
X19385512Y-7680355D01*
X19341793Y-7541559D01*
X19311475Y-7428103D01*
X19291543Y-7321722D01*
X19278981Y-7204156D01*
X19270774Y-7057143D01*
X19267273Y-6964352D01*
X19264306Y-6736185D01*
X19274964Y-6547736D01*
X19302243Y-6382641D01*
X19349139Y-6224535D01*
X19418650Y-6057057D01*
X19442807Y-6005771D01*
X19513945Y-5880983D01*
X19605934Y-5752376D01*
X19707626Y-5632794D01*
X19807874Y-5535082D01*
X19895529Y-5472088D01*
X19913278Y-5463635D01*
X19954380Y-5452693D01*
X20005455Y-5452861D01*
X20072455Y-5466292D01*
X20161330Y-5495135D01*
X20278031Y-5541540D01*
X20428509Y-5607659D01*
X20618714Y-5695641D01*
X20821716Y-5791919D01*
X21007284Y-5882945D01*
X21150388Y-5959370D01*
X21261638Y-6027601D01*
X21351641Y-6094044D01*
X21416449Y-6151139D01*
X21598296Y-6351910D01*
X21776649Y-6605695D01*
X21949223Y-6908446D01*
X22113728Y-7256109D01*
X22267877Y-7644635D01*
X22281893Y-7683503D01*
X22357630Y-7903776D01*
X22436503Y-8148298D01*
X22515733Y-8407115D01*
X22592542Y-8670272D01*
X22664150Y-8927811D01*
X22727781Y-9169780D01*
X22780655Y-9386222D01*
X22819994Y-9567181D01*
X22840773Y-9686067D01*
X22859040Y-9814494D01*
X23349847Y-9814494D01*
X23344757Y-9786623D01*
X23270615Y-9450976D01*
X23181542Y-9096712D01*
X23080876Y-8734910D01*
X22971954Y-8376647D01*
X22858113Y-8033000D01*
X22742689Y-7715049D01*
X22629020Y-7433871D01*
X22543113Y-7245955D01*
X22390707Y-6954474D01*
X22239090Y-6709842D01*
X22080019Y-6502547D01*
X21905252Y-6323080D01*
X21706545Y-6161928D01*
X21475656Y-6009581D01*
X21467227Y-6004494D01*
X21278550Y-5894643D01*
X21070877Y-5780182D01*
X20851284Y-5664442D01*
X20626853Y-5550755D01*
X20404660Y-5442451D01*
X20191785Y-5342862D01*
X19995306Y-5255319D01*
X19822303Y-5183154D01*
X19679853Y-5129697D01*
X19575036Y-5098281D01*
X19526513Y-5091178D01*
X19444776Y-5114674D01*
G36*
X23400632Y-10092575D02*
G01*
X23423843Y-10232404D01*
X23449067Y-10361872D01*
X23472895Y-10452150D01*
X23497986Y-10512949D01*
X23526998Y-10553975D01*
X23601102Y-10608175D01*
X23732946Y-10666257D01*
X23914933Y-10722777D01*
X24143459Y-10776774D01*
X24414920Y-10827288D01*
X24725710Y-10873359D01*
X24778340Y-10891411D01*
X24854533Y-10931299D01*
X24943596Y-10985709D01*
X25035198Y-11047374D01*
X25119007Y-11109028D01*
X25184693Y-11163406D01*
X25221923Y-11203240D01*
X25220366Y-11221265D01*
X25165143Y-11222057D01*
X25064134Y-11212002D01*
X24932403Y-11192849D01*
X24782762Y-11166836D01*
X24628023Y-11136200D01*
X24480996Y-11103180D01*
X24354494Y-11070013D01*
X24285029Y-11048727D01*
X24126574Y-10995063D01*
X23956593Y-10932382D01*
X23801626Y-10870273D01*
X23505611Y-10745073D01*
X23523712Y-10850570D01*
X23534793Y-10936801D01*
X23546283Y-11086803D01*
X23548556Y-11136002D01*
X23554755Y-11270194D01*
X23560007Y-11473778D01*
X23561836Y-11684355D01*
X23560041Y-11888727D01*
X23554419Y-12073697D01*
X23544769Y-12226067D01*
X23525659Y-12403017D01*
X23471575Y-12720753D01*
X23390129Y-13030454D01*
X23276776Y-13348036D01*
X23126970Y-13689417D01*
X23076445Y-13794891D01*
X22998423Y-13952985D01*
X22924881Y-14096779D01*
X22862266Y-14213751D01*
X22817028Y-14291376D01*
X22791423Y-14329456D01*
X22714804Y-14431078D01*
X22622810Y-14541505D01*
X22525412Y-14649876D01*
X22432578Y-14745332D01*
X22354277Y-14817014D01*
X22300478Y-14854062D01*
X22280977Y-14860420D01*
X22187357Y-14866136D01*
X22075561Y-14847573D01*
X21970012Y-14808127D01*
X21910861Y-14771077D01*
X21826077Y-14710052D01*
X21734592Y-14638597D01*
X21686790Y-14597936D01*
X21602681Y-14511441D01*
X21531349Y-14409677D01*
X21457944Y-14273023D01*
X21410022Y-14163456D01*
X21346022Y-13985929D01*
X21281098Y-13776481D01*
X21218947Y-13548827D01*
X21163265Y-13316680D01*
X21117749Y-13093753D01*
X21086098Y-12893761D01*
X21083275Y-12872059D01*
X21067047Y-12754123D01*
X21044313Y-12595874D01*
X21016962Y-12410167D01*
X20986882Y-12209858D01*
X20955962Y-12007802D01*
X20953725Y-11993254D01*
X20922249Y-11773460D01*
X20892727Y-11541178D01*
X20867103Y-11313591D01*
X20847319Y-11107883D01*
X20835320Y-10941235D01*
X20834703Y-10929598D01*
X20824254Y-10756803D01*
X20813473Y-10632740D01*
X20801221Y-10549524D01*
X20786357Y-10499272D01*
X20767740Y-10474097D01*
X20754104Y-10459960D01*
X20712852Y-10400012D01*
X20659290Y-10308672D01*
X20601511Y-10199316D01*
X20553070Y-10104728D01*
X20457347Y-9933389D01*
X20361296Y-9788169D01*
X20251790Y-9650186D01*
X20115701Y-9500561D01*
X20088691Y-9472045D01*
X19842983Y-9200482D01*
X19634488Y-8943650D01*
X19453089Y-8687355D01*
X19288665Y-8417405D01*
X19131099Y-8119608D01*
X19067526Y-7988614D01*
X18927849Y-7666509D01*
X18826270Y-7369378D01*
X18760193Y-7087055D01*
X18727022Y-6809376D01*
X18726283Y-6736185D01*
X19264306Y-6736185D01*
X19267273Y-6964352D01*
X19270774Y-7057143D01*
X19278981Y-7204156D01*
X19291543Y-7321722D01*
X19311475Y-7428103D01*
X19341793Y-7541559D01*
X19385512Y-7680355D01*
X19447782Y-7852309D01*
X19546186Y-8085712D01*
X19662033Y-8331274D01*
X19786969Y-8572255D01*
X19912643Y-8791915D01*
X20030704Y-8973515D01*
X20125474Y-9101518D01*
X20291803Y-9309151D01*
X20472315Y-9518155D01*
X20649264Y-9707471D01*
X20703808Y-9761289D01*
X20757597Y-9809990D01*
X20784825Y-9828764D01*
X20787392Y-9824494D01*
X20792884Y-9777393D01*
X20796868Y-9685030D01*
X20799402Y-9555885D01*
X20800541Y-9398440D01*
X20800341Y-9221174D01*
X20798859Y-9032569D01*
X20796150Y-8841106D01*
X20792270Y-8655266D01*
X20787275Y-8483530D01*
X20786885Y-8473907D01*
X21315056Y-8473907D01*
X21315056Y-9428674D01*
X21316622Y-9818066D01*
X21323247Y-10263204D01*
X21335389Y-10663674D01*
X21353400Y-11026279D01*
X21377633Y-11357823D01*
X21408443Y-11665110D01*
X21446182Y-11954943D01*
X21453692Y-12006431D01*
X21485868Y-12226736D01*
X21521191Y-12468232D01*
X21555871Y-12705027D01*
X21586120Y-12911230D01*
X21593960Y-12964031D01*
X21647826Y-13294674D01*
X21705231Y-13587798D01*
X21769800Y-13860453D01*
X21845158Y-14129690D01*
X21857873Y-14171032D01*
X21891995Y-14272452D01*
X21921151Y-14346367D01*
X21940114Y-14379051D01*
X21955411Y-14377918D01*
X22002891Y-14344500D01*
X22069404Y-14279321D01*
X22146258Y-14191915D01*
X22224760Y-14091812D01*
X22296218Y-13988545D01*
X22385648Y-13836621D01*
X22489156Y-13638343D01*
X22595320Y-13416049D01*
X22697715Y-13184317D01*
X22789911Y-12957725D01*
X22865482Y-12750852D01*
X22917999Y-12578276D01*
X22937133Y-12503036D01*
X22961132Y-12401056D01*
X22979160Y-12307495D01*
X22992316Y-12211438D01*
X23001703Y-12101969D01*
X23008419Y-11968172D01*
X23013565Y-11799132D01*
X23018243Y-11583932D01*
X23021415Y-11374733D01*
X23021477Y-11136002D01*
X23016458Y-10937231D01*
X23006075Y-10768709D01*
X22990042Y-10620722D01*
X22948790Y-10313917D01*
X22733844Y-10049395D01*
X22659705Y-9960291D01*
X22551594Y-9836164D01*
X22448907Y-9724056D01*
X22366471Y-9640472D01*
X22269903Y-9547555D01*
X22122230Y-9400995D01*
X21970914Y-9246363D01*
X21823405Y-9091611D01*
X21687153Y-8944694D01*
X21569609Y-8813566D01*
X21478222Y-8706181D01*
X21420444Y-8630493D01*
X21315056Y-8473907D01*
X20786885Y-8473907D01*
X20781223Y-8334378D01*
X20774167Y-8216292D01*
X20766973Y-8116654D01*
X20753525Y-7902860D01*
X20742257Y-7686215D01*
X20733342Y-7474198D01*
X20726956Y-7274285D01*
X20723274Y-7093953D01*
X20722471Y-6940679D01*
X20724723Y-6821940D01*
X20730203Y-6745214D01*
X20739088Y-6717977D01*
X20739512Y-6717987D01*
X20778033Y-6734100D01*
X20847523Y-6775038D01*
X20933239Y-6832134D01*
X21021984Y-6889614D01*
X21098104Y-6930642D01*
X21145057Y-6946292D01*
X21173379Y-6949835D01*
X21220249Y-6982130D01*
X21256684Y-7054943D01*
X21287817Y-7176553D01*
X21313836Y-7294802D01*
X21369114Y-7510375D01*
X21434875Y-7735233D01*
X21505950Y-7953017D01*
X21577169Y-8147363D01*
X21643362Y-8301910D01*
X21721313Y-8457498D01*
X21829362Y-8648107D01*
X21948273Y-8826567D01*
X22086666Y-9004583D01*
X22253160Y-9193862D01*
X22456374Y-9406110D01*
X22859040Y-9814494D01*
X22840773Y-9686067D01*
X22819994Y-9567181D01*
X22780655Y-9386222D01*
X22727781Y-9169780D01*
X22664150Y-8927811D01*
X22592542Y-8670272D01*
X22515733Y-8407115D01*
X22436503Y-8148298D01*
X22357630Y-7903776D01*
X22281893Y-7683503D01*
X22267877Y-7644635D01*
X22113728Y-7256109D01*
X21949223Y-6908446D01*
X21776649Y-6605695D01*
X21598296Y-6351910D01*
X21416449Y-6151139D01*
X21351641Y-6094044D01*
X21261638Y-6027601D01*
X21150388Y-5959370D01*
X21007284Y-5882945D01*
X20821716Y-5791919D01*
X20618714Y-5695641D01*
X20428509Y-5607659D01*
X20278031Y-5541540D01*
X20161330Y-5495135D01*
X20072455Y-5466292D01*
X20005455Y-5452861D01*
X19954380Y-5452693D01*
X19913278Y-5463635D01*
X19895529Y-5472088D01*
X19807874Y-5535082D01*
X19707626Y-5632794D01*
X19605934Y-5752376D01*
X19513945Y-5880983D01*
X19442807Y-6005771D01*
X19418650Y-6057057D01*
X19349139Y-6224535D01*
X19302243Y-6382641D01*
X19274964Y-6547736D01*
X19264306Y-6736185D01*
X18726283Y-6736185D01*
X18724161Y-6526178D01*
X18740302Y-6314494D01*
X18791966Y-6038062D01*
X18880263Y-5788886D01*
X19008845Y-5554505D01*
X19016680Y-5542545D01*
X19120757Y-5401711D01*
X19232839Y-5278049D01*
X19343865Y-5179667D01*
X19444776Y-5114674D01*
X19526513Y-5091178D01*
X19575036Y-5098281D01*
X19679853Y-5129697D01*
X19822303Y-5183154D01*
X19995306Y-5255319D01*
X20191785Y-5342862D01*
X20404660Y-5442451D01*
X20626853Y-5550755D01*
X20851284Y-5664442D01*
X21070877Y-5780182D01*
X21278550Y-5894643D01*
X21467227Y-6004494D01*
X21475656Y-6009581D01*
X21706545Y-6161928D01*
X21905252Y-6323080D01*
X22080019Y-6502547D01*
X22239090Y-6709842D01*
X22390707Y-6954474D01*
X22543113Y-7245955D01*
X22629020Y-7433871D01*
X22742689Y-7715049D01*
X22858113Y-8033000D01*
X22971954Y-8376647D01*
X23080876Y-8734910D01*
X23181542Y-9096712D01*
X23270615Y-9450976D01*
X23344757Y-9786623D01*
X23349847Y-9814494D01*
X23400632Y-10092575D01*
G37*
%TO.C,R2*%
D13*
X37977064Y-15935000D02*
X37522936Y-15935000D01*
X37977064Y-14465000D02*
X37522936Y-14465000D01*
%TO.C,R3*%
X37977064Y-18735000D02*
X37522936Y-18735000D01*
X37977064Y-17265000D02*
X37522936Y-17265000D01*
%TO.C,R1*%
X37977064Y-11665000D02*
X37522936Y-11665000D01*
X37977064Y-13135000D02*
X37522936Y-13135000D01*
%TO.C,J1*%
X9190000Y-29420000D02*
X9190000Y-30800000D01*
X10570000Y-29420000D02*
X9190000Y-29420000D01*
X11840000Y-29420000D02*
X34810000Y-29420000D01*
X11840000Y-29420000D02*
X11840000Y-32180000D01*
X34810000Y-29420000D02*
X34810000Y-32180000D01*
X11840000Y-32180000D02*
X34810000Y-32180000D01*
%TO.C,C8*%
X10735000Y-19511252D02*
X10735000Y-18988748D01*
X9265000Y-19511252D02*
X9265000Y-18988748D01*
%TO.C,C7*%
X12877857Y-19511252D02*
X12877857Y-18988748D01*
X11407857Y-19511252D02*
X11407857Y-18988748D01*
%TO.C,C6*%
X15020714Y-19511252D02*
X15020714Y-18988748D01*
X13550714Y-19511252D02*
X13550714Y-18988748D01*
%TO.C,C5*%
X17163571Y-19511252D02*
X17163571Y-18988748D01*
X15693571Y-19511252D02*
X15693571Y-18988748D01*
%TO.C,C4*%
X19306429Y-19511252D02*
X19306429Y-18988748D01*
X17836429Y-19511252D02*
X17836429Y-18988748D01*
%TO.C,C3*%
X26735000Y-19511252D02*
X26735000Y-18988748D01*
X25265000Y-19511252D02*
X25265000Y-18988748D01*
%TO.C,C2*%
X21949286Y-19511252D02*
X21949286Y-18988748D01*
X20479286Y-19511252D02*
X20479286Y-18988748D01*
%TO.C,C1*%
X24092143Y-18988748D02*
X24092143Y-19511252D01*
X22622143Y-18988748D02*
X22622143Y-19511252D01*
%TD*%
M02*
