%TF.GenerationSoftware,KiCad,Pcbnew,10.0.6*%
%TF.CreationDate,2026-09-25T11:18:34-04:00*%
%TF.ProjectId,AZ1_Series_Breakout,415a315f-5365-4726-9965-735f42726561,rev?*%
%TF.SameCoordinates,PX7088980PY5241210*%
%TF.FileFunction,Soldermask,Bot*%
%TF.FilePolarity,Negative*%
%FSLAX46Y46*%
G04 Gerber Fmt 4.6, Leading zero omitted, Abs format (unit mm)*
G04 Created by KiCad (PCBNEW 10.0.6) date 2026-09-25 11:18:34*
%MOMM*%
%LPD*%
G01*
G04 APERTURE LIST*
G04 Aperture macros list*
%AMRoundRect*
0 Rectangle with rounded corners*
0 $1 Rounding radius*
0 $2 $3 $4 $5 $6 $7 $8 $9 X,Y pos of 4 corners*
0 Add a 4 corners polygon primitive as box body*
4,1,4,$2,$3,$4,$5,$6,$7,$8,$9,$2,$3,0*
0 Add four circle primitives for the rounded corners*
1,1,$1+$1,$2,$3*
1,1,$1+$1,$4,$5*
1,1,$1+$1,$6,$7*
1,1,$1+$1,$8,$9*
0 Add four rect primitives between the rounded corners*
20,1,$1+$1,$2,$3,$4,$5,0*
20,1,$1+$1,$4,$5,$6,$7,0*
20,1,$1+$1,$6,$7,$8,$9,0*
20,1,$1+$1,$8,$9,$2,$3,0*%
G04 Aperture macros list end*
%ADD10RoundRect,0.250000X0.262500X0.450000X-0.262500X0.450000X-0.262500X-0.450000X0.262500X-0.450000X0*%
%ADD11C,5.600000*%
%ADD12C,0.900000*%
%ADD13R,1.100000X1.300000*%
%ADD14O,1.100000X1.300000*%
%ADD15O,2.700000X1.500000*%
%ADD16R,1.700000X1.700000*%
%ADD17C,1.700000*%
%ADD18RoundRect,0.250000X0.475000X-0.250000X0.475000X0.250000X-0.475000X0.250000X-0.475000X-0.250000X0*%
%ADD19RoundRect,0.250000X-0.475000X0.250000X-0.475000X-0.250000X0.475000X-0.250000X0.475000X0.250000X0*%
G04 APERTURE END LIST*
D10*
%TO.C,R2*%
X36837500Y-15200000D03*
X38662500Y-15200000D03*
%TD*%
%TO.C,R3*%
X36837500Y-18000000D03*
X38662500Y-18000000D03*
%TD*%
%TO.C,R1*%
X38662500Y-12400000D03*
X36837500Y-12400000D03*
%TD*%
D11*
%TO.C,H2*%
X39500000Y-29500000D03*
%TD*%
%TO.C,H1*%
X4500000Y-29500000D03*
%TD*%
D12*
%TO.C,U1*%
X1900000Y-1882500D03*
X1900000Y-24982500D03*
X42100000Y-1882500D03*
X42100000Y-24982500D03*
D13*
X10000000Y-24832500D03*
D14*
X11500000Y-24832500D03*
X13000000Y-24832500D03*
X14500000Y-24832500D03*
X16000000Y-24832500D03*
X17500000Y-24832500D03*
X19000000Y-24832500D03*
X20500000Y-24832500D03*
X22000000Y-24832500D03*
X23500000Y-24832500D03*
X25000000Y-24832500D03*
X26500000Y-24832500D03*
X28000000Y-24832500D03*
X29500000Y-24832500D03*
X31000000Y-24832500D03*
X32500000Y-24832500D03*
X34000000Y-24832500D03*
D15*
X4700000Y-23032500D03*
X7700000Y-23032500D03*
X36300000Y-23032500D03*
X39300000Y-23032500D03*
%TD*%
D16*
%TO.C,J1*%
X10570000Y-30800000D03*
D17*
X13110000Y-30800000D03*
X15650000Y-30800000D03*
X18190000Y-30800000D03*
X20730000Y-30800000D03*
X23270000Y-30800000D03*
X25810000Y-30800000D03*
X28350000Y-30800000D03*
X30890000Y-30800000D03*
X33430000Y-30800000D03*
%TD*%
D18*
%TO.C,C8*%
X10000000Y-20200000D03*
X10000000Y-18300000D03*
%TD*%
%TO.C,C7*%
X12142857Y-20200000D03*
X12142857Y-18300000D03*
%TD*%
%TO.C,C6*%
X14285714Y-20200000D03*
X14285714Y-18300000D03*
%TD*%
%TO.C,C5*%
X16428571Y-20200000D03*
X16428571Y-18300000D03*
%TD*%
%TO.C,C4*%
X18571429Y-20200000D03*
X18571429Y-18300000D03*
%TD*%
%TO.C,C3*%
X26000000Y-20200000D03*
X26000000Y-18300000D03*
%TD*%
%TO.C,C2*%
X21214286Y-20200000D03*
X21214286Y-18300000D03*
%TD*%
D19*
%TO.C,C1*%
X23357143Y-20200000D03*
X23357143Y-18300000D03*
%TD*%
M02*
