M48
; DRILL file KiCad 10.0.6 date 2026-09-25T11:18:36
; FORMAT={-:-/ absolute / metric / decimal}
; #@! TF.CreationDate,2026-09-25T11:18:36-04:00
; #@! TF.GenerationSoftware,Kicad,Pcbnew,10.0.6
; #@! TF.FileFunction,Plated,1,2,PTH
FMAT,2
METRIC
; #@! TA.AperFunction,Plated,PTH,ViaDrill
T1C0.400
; #@! TA.AperFunction,Plated,PTH,ComponentDrill
T2C0.700
; #@! TA.AperFunction,Plated,PTH,ComponentDrill
T3C0.800
; #@! TA.AperFunction,Plated,PTH,ComponentDrill
T4C1.000
; #@! TA.AperFunction,Plated,PTH,ComponentDrill
T5C3.200
%
G90
G05
T1
X21.22Y-17.2
X23.36Y-17.2
X35.73Y-12.4
X39.78Y-15.19
X39.96Y-12.4
T2
X10.0Y-24.832
X11.5Y-24.832
X13.0Y-24.832
X14.5Y-24.832
X16.0Y-24.832
X17.5Y-24.832
X19.0Y-24.832
X20.5Y-24.832
X22.0Y-24.832
X23.5Y-24.832
X25.0Y-24.832
X26.5Y-24.832
X28.0Y-24.832
X29.5Y-24.832
X31.0Y-24.832
X32.5Y-24.832
X34.0Y-24.832
T4
X10.57Y-30.8
X13.11Y-30.8
X15.65Y-30.8
X18.19Y-30.8
X20.73Y-30.8
X23.27Y-30.8
X25.81Y-30.8
X28.35Y-30.8
X30.89Y-30.8
X33.43Y-30.8
T5
X4.5Y-29.5
X39.5Y-29.5
T3
G00X4.1Y-23.032
M15
G01X5.3Y-23.032
M16
G05
G00X7.1Y-23.032
M15
G01X8.3Y-23.032
M16
G05
G00X35.7Y-23.032
M15
G01X36.9Y-23.032
M16
G05
G00X38.7Y-23.032
M15
G01X39.9Y-23.032
M16
G05
M30
